<?xml version="1.0" encoding="UTF-8" standalone="no"?>
<!-- Generator: Adobe Illustrator 16.0.0, SVG Export Plug-In . SVG Version: 6.00 Build 0)  -->

<svg
   version="1.1"
   id="Capa_1"
   x="0px"
   y="0px"
   width="93.558px"
   height="93.558px"
   viewBox="0 0 93.558 93.558"
   style="enable-background:new 0 0 93.558 93.558;"
   xml:space="preserve"
   sodipodi:docname="pi.svg"
   inkscape:version="1.1.2 (b8e25be833, 2022-02-05)"
   xmlns:inkscape="http://www.inkscape.org/namespaces/inkscape"
   xmlns:sodipodi="http://sodipodi.sourceforge.net/DTD/sodipodi-0.dtd"
   xmlns="http://www.w3.org/2000/svg"
   xmlns:svg="http://www.w3.org/2000/svg"><defs
   id="defs41" /><sodipodi:namedview
   id="namedview39"
   pagecolor="#ffffff"
   bordercolor="#eeeeee"
   borderopacity="1"
   inkscape:pageshadow="0"
   inkscape:pageopacity="1"
   inkscape:pagecheckerboard="0"
   showgrid="false"
   inkscape:zoom="7.6850725"
   inkscape:cx="46.778999"
   inkscape:cy="46.778999"
   inkscape:window-width="1920"
   inkscape:window-height="1001"
   inkscape:window-x="-9"
   inkscape:window-y="-9"
   inkscape:window-maximized="1"
   inkscape:current-layer="g4" />
<g
   id="g6">
	<g
   id="g4">
		<path
   d="M 72.766,74.275 C 59.4,63.824 68.833,20.837 68.833,20.837 c 0,0 14.631,0 16.336,0 1.705,0 8.389,-1.072 8.389,-9.076 0,-9.846 -8.168,-9.241 -8.168,-9.241 0,0 -44.774,0 -60.147,0 -9.873,0 -18.784,11.304 -23.899,19.389 -2.723,4.318 -1.183,5.528 3.493,3.493 16.392,-7.178 21.012,-4.593 21.012,-4.593 1.155,5.528 1.54,30.473 -2.667,40.318 -4.263,9.269 -12.128,21.012 -0.578,27.915 9.021,5.115 18.481,-5.391 17.546,-23.268 -0.44,-9.461 -1.183,-44.938 -1.183,-44.938 h 15.072 c -0.469,5.528 -3.025,33.745 -0.357,50.467 2.777,27.915 33.112,22.497 38.777,6.685 1.402,-4.373 1.073,-7.729 0.027,-10.26 -1.926,-4.702 -5.144,-4.949 -4.785,-2.75 0.221,1.402 0.083,2.777 -0.138,4.016 -0.661,3.823 -8.471,9.817 -14.797,5.281 z"
   id="path2"
   style="fill:#000000" />
	</g>
</g>
<g
   id="g8">
</g>
<g
   id="g10">
</g>
<g
   id="g12">
</g>
<g
   id="g14">
</g>
<g
   id="g16">
</g>
<g
   id="g18">
</g>
<g
   id="g20">
</g>
<g
   id="g22">
</g>
<g
   id="g24">
</g>
<g
   id="g26">
</g>
<g
   id="g28">
</g>
<g
   id="g30">
</g>
<g
   id="g32">
</g>
<g
   id="g34">
</g>
<g
   id="g36">
</g>
</svg>
