<?xml version="1.0" encoding="UTF-8" standalone="no"?>
<!-- Created with Inkscape (http://www.inkscape.org/) -->

<svg
   xmlns:dc="http://purl.org/dc/elements/1.1/"
   xmlns:cc="http://creativecommons.org/ns#"
   xmlns:rdf="http://www.w3.org/1999/02/22-rdf-syntax-ns#"
   xmlns:svg="http://www.w3.org/2000/svg"
   xmlns="http://www.w3.org/2000/svg"
   xmlns:sodipodi="http://sodipodi.sourceforge.net/DTD/sodipodi-0.dtd"
   xmlns:inkscape="http://www.inkscape.org/namespaces/inkscape"
   version="1.0"
   width="1091.9919"
   height="630.11902"
   viewBox="0 0 1091.992 630.119"
   id="svg2"
   inkscape:version="0.91 r13725"
   sodipodi:docname="Autonomous oblast of Russia.svg">
  <sodipodi:namedview
     pagecolor="#ffffff"
     bordercolor="#666666"
     borderopacity="1"
     objecttolerance="10"
     gridtolerance="10"
     guidetolerance="10"
     inkscape:pageopacity="0"
     inkscape:pageshadow="2"
     inkscape:window-width="1920"
     inkscape:window-height="1017"
     id="namedview4764"
     showgrid="false"
     inkscape:zoom="1.1648225"
     inkscape:cx="688.58419"
     inkscape:cy="308.42562"
     inkscape:window-x="-8"
     inkscape:window-y="-8"
     inkscape:window-maximized="1"
     inkscape:current-layer="svg2" />
  <defs
     id="defs558" />
  <style
     type="text/css"
     id="style3390" />
  <metadata
     id="metadata1880">
    <rdf:RDF>
      <cc:Work
         rdf:about="">
        <dc:title></dc:title>
        <dc:date>16-04-2008</dc:date>
        <dc:creator>
          <cc:Agent>
            <dc:title>Lokal_Profil</dc:title>
          </cc:Agent>
        </dc:creator>
        <cc:license
           rdf:resource="http://creativecommons.org/licenses/by-sa/2.5/" />
        <dc:rights>
          <cc:Agent>
            <dc:title>cc-by-sa-2.5</dc:title>
          </cc:Agent>
        </dc:rights>
        <dc:format>image/svg+xml</dc:format>
        <dc:type
           rdf:resource="http://purl.org/dc/dcmitype/StillImage" />
      </cc:Work>
      <cc:License
         rdf:about="http://creativecommons.org/licenses/by-sa/2.5/">
        <cc:permits
           rdf:resource="http://web.resource.org/cc/Reproduction" />
        <cc:permits
           rdf:resource="http://web.resource.org/cc/Distribution" />
        <cc:requires
           rdf:resource="http://web.resource.org/cc/Notice" />
        <cc:requires
           rdf:resource="http://web.resource.org/cc/Attribution" />
        <cc:permits
           rdf:resource="http://web.resource.org/cc/DerivativeWorks" />
        <cc:requires
           rdf:resource="http://web.resource.org/cc/ShareAlike" />
      </cc:License>
    </rdf:RDF>
  </metadata>
  <g
     transform="translate(26.000002,8.0000247)"
     id="SA3"
     style="fill:#800080;fill-opacity:1;stroke:#000000" />
  <g
     transform="translate(26.000002,8.0000247)"
     id="use4237"
     style="fill:#800080;fill-opacity:1;stroke:#000000" />
  <polygon
     transform="translate(25.9971,7.9998)"
     points="720.359,131.338 722.704,128.994 724.141,130.733 724.897,130.733 726.787,128.843 728.527,126.801 731.854,125.289 734.274,127.104 732.913,130.885 732.913,133.002 731.325,134.59 728.829,135.725 726.107,136.784 723.385,136.784 721.343,138.826 718.091,137.691 716.427,135.271 715.671,134.212 715.671,134.212 715.368,133.002 717.637,134.061 718.771,132.926 "
     id="polygon3064"
     style="fill:#b3b3b3;fill-opacity:1;stroke:#000000" />
  <polygon
     transform="translate(25.9971,7.9998)"
     points="709.771,146.917 711.587,146.161 713.1,146.161 714.611,144.649 713.855,141.472 711.436,141.472 712.041,138.75 712.041,136.784 710.074,137.389 710.074,137.389 705.234,137.389 703.646,138.977 701.15,140.716 699.335,138.901 694.949,140.262 695.252,142.985 696.387,144.12 698.05,145.783 699.185,146.917 697.521,148.279 695.252,146.313 694.042,147.522 692.378,145.858 688.597,146.615 686.933,145.708 686.177,147.674 687.387,148.883 685.118,150.094 685.118,152.967 686.934,154.782 686.479,156.9 688.143,156.9 690.261,159.018 689.655,161.438 692.378,162.799 696.008,162.95 697.521,164.462 700.243,164.462 703.419,163.555 703.419,161.135 701.453,159.32 702.512,158.261 704.1,159.849 706.898,154.783 709.545,152.136 710.68,153.27 713.1,150.85 713.855,148.581 711.133,147.674 709.318,149.489 707.05,147.825 704.327,146.161 701.604,144.195 702.512,142.229 703.949,140.792 705.083,144.648 706.822,146.388 "
     id="polygon3066"
     style="fill:#b3b3b3;fill-opacity:1;stroke:#000000" />
  <polygon
     transform="translate(25.9971,7.9998)"
     points="712.646,164.009 711.284,165.219 712.343,168.244 714.083,169.984 715.52,167.185 715.52,164.917 714.461,163.858 712.646,164.009 "
     id="polygon3068"
     style="fill:#b3b3b3;fill-opacity:1;stroke:#000000" />
  <polygon
     transform="translate(25.9971,7.9998)"
     points="719.755,172.479 718.695,174.899 719.604,175.807 720.965,172.933 724.443,172.176 727.469,170.966 731.552,168.546 729.435,164.614 726.561,164.614 722.477,163.252 720.586,164.992 718.847,166.731 718.847,166.731 717.107,168.471 718.091,170.815 "
     id="polygon3070"
     style="fill:#b3b3b3;fill-opacity:1;stroke:#000000" />
  <polygon
     transform="translate(25.9971,7.9998)"
     points="684.815,160.227 683.454,158.866 681.034,158.715 682.623,160.303 683.605,163.857 685.571,163.857 685.571,161.891 684.815,160.227 "
     id="polygon3072"
     style="fill:#b3b3b3;fill-opacity:1;stroke:#000000" />
  <polygon
     transform="translate(25.9971,7.9998)"
     points="610.853,218.761 609.188,219.064 609.188,219.064 606.391,221.862 606.391,223.752 608.734,223.752 609.491,225.567 611.457,224.66 613.727,222.391 613.727,218.761 "
     id="polygon3074"
     style="fill:#b3b3b3;fill-opacity:1;stroke:#000000" />
  <polygon
     transform="translate(25.9971,7.9998)"
     points="709.009,114.247 707.798,112.583 707.798,112.583 706.891,114.247 707.874,115.23 "
     id="polygon3076"
     style="fill:#b3b3b3;fill-opacity:1;stroke:#000000" />
  <polygon
     transform="translate(25.9971,7.9998)"
     points="699.328,178.68 699.328,178.68 696.454,178.075 695.547,178.831 697.211,179.587 699.328,181.251 700.235,180.041 "
     id="polygon3078"
     style="fill:#b3b3b3;fill-opacity:1;stroke:#000000" />
  <polygon
     transform="translate(25.9971,7.9998)"
     points="578.779,182.008 577.419,181.252 577.419,181.252 576.813,182.16 578.175,183.067 "
     id="polygon3080"
     style="fill:#b3b3b3;fill-opacity:1;stroke:#000000" />
  <polygon
     transform="translate(25.9971,7.9998)"
     points="570.915,167.791 569.402,168.698 571.52,169.757 573.032,170.815 574.696,170.362 574.242,168.396 572.578,168.849 570.915,167.791 "
     id="polygon3082"
     style="fill:#b3b3b3;fill-opacity:1;stroke:#000000" />
  <polygon
     transform="translate(25.9971,7.9998)"
     points="563.806,159.32 561.991,160.077 560.176,156.9 558.814,155.539 557.15,157.505 556.092,160.379 556.092,160.379 556.092,158.262 556.243,154.48 555.185,152.363 553.672,152.514 551.555,155.085 551.706,157.354 550.798,158.867 551.403,162.951 549.588,164.766 549.739,168.849 548.832,172.328 548.075,175.807 549.437,176.563 552.311,174.294 553.975,173.236 557.756,171.27 560.781,170.967 564.563,168.093 566.377,164.614 565.167,161.589 "
     id="polygon3084"
     style="fill:#b3b3b3;fill-opacity:1;stroke:#000000" />
  <path
     inkscape:connector-curvature="0"
     d="m 568.47612,152.1948 -1.361,1.664 -1.21,2.269 -1.059,-0.454 0.756,-2.874 0,-3.025 -3.327,1.059 c 0,0 -1.966,0.454 -2.42,0.605 -0.454,0.151 -2.723,0.908 -2.723,0.908 l -1.059,2.269 -0.605,1.966 -1.361,1.664 0.454,1.966 -2.571,1.966 1.21,1.059 1.814,-0.605 1.513,2.117 0.151,1.966 1.361,1.664 3.479,0.302 0.454,1.966 2.42,-1.512 1.21,1.966 3.327,1.21 3.177,-1.513 1.513,-2.118 -1.21,-2.42 -1.967,-2.723 1.513,-1.059 0.605,-2.571 -0.757,-2.874 0.303,-2.874 -3.63,-1.964 z"
     id="path3086"
     style="fill:#b3b3b3;fill-opacity:1;stroke:#000000;stroke-width:1" />
  <polygon
     transform="translate(25.9971,7.9998)"
     points="539.757,190.479 538.244,192.293 536.278,192.747 538.093,194.108 539.908,192.293 539.757,190.479 "
     id="polygon3088"
     style="fill:#b3b3b3;fill-opacity:1;stroke:#000000" />
  <polygon
     transform="translate(25.9971,7.9998)"
     points="516.162,190.024 514.498,189.874 514.498,189.874 513.742,191.083 514.8,191.991 "
     id="polygon3090"
     style="fill:#b3b3b3;fill-opacity:1;stroke:#000000" />
  <path
     inkscape:connector-curvature="0"
     d="m 524.91612,239.3158 -1.815,0.908 c 0,0 0.756,2.269 0.756,1.966 0,-0.303 1.361,-0.605 1.361,-0.605 l -0.302,-2.269 z"
     id="path3092"
     style="fill:#b3b3b3;fill-opacity:1;stroke:#000000;stroke-width:1" />
  <polygon
     transform="translate(25.9971,7.9998)"
     points="486.667,220.577 485.912,217.704 485.912,217.704 484.248,219.064 485.155,220.88 "
     id="polygon3094"
     style="fill:#b3b3b3;fill-opacity:1;stroke:#000000" />
  <polygon
     transform="translate(25.9971,7.9998)"
     points="485.306,237.518 485.306,237.518 485.004,239.181 487.575,239.181 488.937,240.542 489.088,238.273 487.575,237.971 "
     id="polygon3096"
     style="fill:#b3b3b3;fill-opacity:1;stroke:#000000" />
  <polygon
     transform="translate(25.9971,7.9998)"
     points="476.534,147.825 475.626,148.733 476.685,149.338 478.349,150.548 478.803,149.035 476.534,147.825 "
     id="polygon3098"
     style="fill:#b3b3b3;fill-opacity:1;stroke:#000000" />
  <polygon
     transform="translate(25.9971,7.9998)"
     points="467.308,253.247 466.249,254.608 466.854,256.423 467.913,257.785 469.425,256.121 470.03,254.155 468.669,252.793 467.308,253.247 "
     id="polygon3100"
     style="fill:#b3b3b3;fill-opacity:1;stroke:#000000" />
  <polygon
     transform="translate(25.9971,7.9998)"
     points="457.779,262.776 459.14,261.566 461.258,261.566 463.224,259.751 461.409,257.936 459.594,258.39 459.594,258.39 457.93,260.054 456.115,261.566 "
     id="polygon3102"
     style="fill:#b3b3b3;fill-opacity:1;stroke:#000000" />
  <polygon
     transform="translate(25.9971,7.9998)"
     points="454.149,241.601 454.149,241.601 452.788,242.811 453.695,244.172 455.51,242.962 457.779,243.567 457.174,242.206 "
     id="polygon3104"
     style="fill:#b3b3b3;fill-opacity:1;stroke:#000000" />
  <polygon
     transform="translate(25.9971,7.9998)"
     points="449.006,249.012 447.191,247.651 447.191,247.651 446.435,249.617 447.645,250.676 "
     id="polygon3106"
     style="fill:#b3b3b3;fill-opacity:1;stroke:#000000" />
  <polygon
     transform="translate(25.9971,7.9998)"
     points="434.336,242.66 435.849,242.812 435.849,241.299 433.429,240.694 434.639,239.333 433.277,237.367 431.614,237.972 431.009,237.82 431.009,237.82 429.345,239.03 429.95,240.392 428.74,242.055 429.042,243.114 431.765,243.87 "
     id="polygon3108"
     style="fill:#b3b3b3;fill-opacity:1;stroke:#000000" />
  <polygon
     transform="translate(25.9971,7.9998)"
     points="365.365,261.717 362.945,262.927 361.13,263.532 361.584,267.465 361.886,269.583 363.55,270.036 364.155,273.212 367.332,273.515 368.39,270.944 366.877,268.373 367.029,265.499 365.365,261.717 "
     id="polygon3110"
     style="fill:#b3b3b3;fill-opacity:1;stroke:#000000" />
  <polygon
     transform="translate(25.9971,7.9998)"
     points="316.813,254.458 314.696,251.735 314.544,249.466 311.822,248.559 311.822,248.559 308.495,249.466 306.528,252.038 305.016,254.004 306.074,256.877 308.495,257.785 310.763,258.692 312.881,257.18 315.452,257.634 "
     id="polygon3112"
     style="fill:#b3b3b3;fill-opacity:1;stroke:#000000" />
  <polygon
     transform="translate(25.9971,7.9998)"
     points="385.329,190.478 387.144,192.293 389.413,192.293 389.413,190.024 392.74,191.234 394.404,189.419 396.068,187.453 398.186,187.453 401.815,185.79 404.387,186.697 408.168,186.697 410.664,184.201 413.613,184.428 414.974,186.395 418.15,186.395 419.663,187.907 422.386,187.15 426.167,187.15 428.663,184.655 431.612,183.067 435.544,181.554 439.174,181.554 441.292,184.882 441.292,188.512 438.116,191.386 435.242,194.108 431.461,194.411 426.923,196.528 422.839,195.016 420.873,196.982 416.184,196.831 410.134,196.831 407.865,199.251 403.177,199.251 399.698,201.217 400.757,203.637 398.336,204.544 395.463,204.242 392.892,204.242 392.589,205.906 389.867,205.149 389.867,207.872 387.144,209.838 384.875,211.502 384.875,208.931 383.06,210.595 383.514,213.62 381.699,213.62 380.413,212.334 380.413,213.771 380.413,216.04 379.09,214.716 377.389,216.417 375.951,217.855 373.984,217.855 372.472,219.821 370.506,223.148 367.33,223.148 364.758,225.266 364.758,228.14 362.187,229.199 361.279,232.224 359.162,234.341 359.162,238.123 358.103,240.845 359.464,244.777 358.254,248.71 359.918,251.281 360.674,254.004 359.767,254.912 357.196,256.122 357.196,254.155 354.776,252.794 354.776,252.794 353.112,252.794 351.297,250.071 350.239,250.676 347.063,247.651 344.642,245.08 345.55,242.357 347.97,241.601 348.877,240.089 347.213,238.728 347.365,235.097 346.306,234.795 345.247,232.072 342.979,231.921 341.164,229.35 341.769,226.022 344.188,222.695 347.063,222.997 347.97,224.056 349.028,224.51 349.482,222.543 352.961,221.485 355.684,218.611 353.869,216.645 356.289,215.132 359.011,216.191 359.768,213.922 359.768,211.653 363.246,211.653 364.91,213.317 366.649,211.578 367.027,209.99 370.809,209.233 369.523,207.948 366.271,206.813 366.271,205.604 370.053,204.544 373.985,203.486 375.951,201.52 378.522,201.52 378.522,199.705 382.153,199.553 380.187,197.587 383.363,197.436 384.573,198.646 384.421,195.621 385.934,194.108 384.27,192.142 "
     id="polygon3116"
     style="fill:#b3b3b3;fill-opacity:1;stroke:#000000" />
  <polygon
     transform="translate(25.9971,7.9998)"
     points="489.25,128.245 489.25,128.245 488,128.495 487.188,129.307 488.438,130.557 490.125,129.995 491.125,128.995 "
     id="polygon3118"
     style="fill:#b3b3b3;fill-opacity:1;stroke:#000000" />
  <polygon
     transform="translate(25.9971,7.9998)"
     points="517.875,125.745 517.875,125.745 516.75,126.87 517.625,127.745 518.563,128.682 520.5,126.87 520.5,125.62 "
     id="polygon3120"
     style="fill:#b3b3b3;fill-opacity:1;stroke:#000000" />
  <polygon
     transform="translate(25.9971,7.9998)"
     points="523.875,132.995 525.25,134.37 523.438,136.182 522.25,138.495 523.875,140.745 524.5,142.995 527.375,145.495 530,142.995 531.75,142.995 534.375,141.495 537.5,140.495 536.625,137.495 536.625,133.745 538.5,132.12 536.938,130.557 533.75,127.37 532.625,124.87 529.875,124.12 529.875,124.12 529.5,126.62 527.25,127.62 523.875,129.87 "
     id="polygon3122"
     style="fill:#b3b3b3;fill-opacity:1;stroke:#000000" />
  <polygon
     transform="translate(25.9971,7.9998)"
     points="525.625,145.62 522.5,144.87 522.5,144.87 520.375,144.62 520.75,147.37 520.75,149.12 523.5,149.87 524.625,150.995 526.313,149.307 527.25,146.87 "
     id="polygon3124"
     style="fill:#b3b3b3;fill-opacity:1;stroke:#000000" />
  <polygon
     transform="translate(25.9971,7.9998)"
     points="491.125,210.12 489.125,208.87 489.125,208.87 488.313,209.682 489.375,210.62 "
     id="polygon3126"
     style="fill:#b3b3b3;fill-opacity:1;stroke:#000000" />
  <polygon
     transform="translate(25.9971,7.9998)"
     points="451.125,104.12 451.125,104.12 449.875,104.495 450.875,105.87 450.875,107.12 452.625,107.12 452.625,104.745 "
     id="polygon3128"
     style="fill:#b3b3b3;fill-opacity:1;stroke:#000000" />
  <polygon
     transform="translate(25.9971,7.9998)"
     points="450.75,114.745 449.875,116.12 446.625,116.745 444.5,117.87 446.125,118.62 445.375,120.37 446.75,120.745 449.5,120.745 451.688,118.557 453.313,116.932 452.75,114.495 450.75,114.745 "
     id="polygon3130"
     style="fill:#b3b3b3;fill-opacity:1;stroke:#000000" />
  <polygon
     transform="translate(25.9971,7.9998)"
     points="440.375,112.495 440.375,112.495 439.688,113.182 441,114.495 443.375,113.62 443.375,111.62 442,111.62 "
     id="polygon3132"
     style="fill:#b3b3b3;fill-opacity:1;stroke:#000000" />
  <polygon
     transform="translate(25.9971,7.9998)"
     points="442.563,118.557 443.25,116.495 441.375,116.495 438.563,116.432 438.563,116.432 436.75,114.37 435.375,115.745 434.375,117.745 434.375,120.245 436.5,120.62 437,122.12 439.625,121.495 441.313,119.807 "
     id="polygon3134"
     style="fill:#b3b3b3;fill-opacity:1;stroke:#000000" />
  <polygon
     transform="translate(25.9971,7.9998)"
     points="431.125,125.12 430.313,125.932 430.313,127.495 432,127.495 432.625,125.495 431.125,125.12 "
     id="polygon3136"
     style="fill:#b3b3b3;fill-opacity:1;stroke:#000000" />
  <polygon
     transform="translate(25.9971,7.9998)"
     points="426.375,121.495 427.5,122.62 430.125,121.995 430.875,120.245 432.75,120.87 431.75,118.62 430.063,116.932 427.625,118.745 427.625,118.745 426.75,117.87 424,117.87 424,119.745 422.5,121.245 423.375,122.12 "
     id="polygon3138"
     style="fill:#b3b3b3;fill-opacity:1;stroke:#000000" />
  <polygon
     transform="translate(25.9971,7.9998)"
     points="443.313,99.432 441.5,97.87 441.5,97.87 440.75,99.37 442.063,100.682 "
     id="polygon3140"
     style="fill:#b3b3b3;fill-opacity:1;stroke:#000000" />
  <polygon
     transform="translate(25.9971,7.9998)"
     points="438.75,101.37 436.75,101.37 436.75,103.62 438.875,105.745 438.875,107.495 440.75,106.62 439.625,104.245 438.75,101.37 "
     id="polygon3142"
     style="fill:#b3b3b3;fill-opacity:1;stroke:#000000" />
  <polygon
     transform="translate(25.9971,7.9998)"
     points="425.563,109.682 426.25,107.87 426.25,107.87 424.5,107.87 424.125,108.245 "
     id="polygon3144"
     style="fill:#b3b3b3;fill-opacity:1;stroke:#000000" />
  <polygon
     transform="translate(25.9971,7.9998)"
     points="429.125,113.12 427.75,110.745 427.75,110.745 426.563,111.932 427.75,113.245 "
     id="polygon3146"
     style="fill:#b3b3b3;fill-opacity:1;stroke:#000000" />
  <polygon
     transform="translate(25.9971,7.9998)"
     points="430.25,104.995 428.875,105.245 428.875,105.245 428.875,106.87 430.625,106.87 "
     id="polygon3148"
     style="fill:#b3b3b3;fill-opacity:1;stroke:#000000" />
  <polygon
     transform="translate(25.9971,7.9998)"
     points="431.625,109.62 431.313,109.307 431.313,109.307 431.313,110.745 432.75,110.745 "
     id="polygon3150"
     style="fill:#b3b3b3;fill-opacity:1;stroke:#000000" />
  <polygon
     transform="translate(25.9971,7.9998)"
     points="432.75,112.62 433.375,113.245 434.5,112.12 432.75,112.62 "
     id="polygon3152"
     style="fill:#b3b3b3;fill-opacity:1;stroke:#000000" />
  <polygon
     transform="translate(25.9971,7.9998)"
     points="436,105.995 434.5,105.995 434.5,105.995 434.5,107.745 436,107.87 "
     id="polygon3154"
     style="fill:#b3b3b3;fill-opacity:1;stroke:#000000" />
  <polygon
     transform="translate(25.9971,7.9998)"
     points="433.125,102.495 432.25,102.495 432.25,102.495 433.125,104.12 433.938,103.307 "
     id="polygon3156"
     style="fill:#b3b3b3;fill-opacity:1;stroke:#000000" />
  <polygon
     transform="translate(25.9971,7.9998)"
     points="416.125,112.995 416.125,112.995 415.188,113.932 416.813,115.557 418.625,115.62 418.625,112.62 417.375,110.995 "
     id="polygon3158"
     style="fill:#b3b3b3;fill-opacity:1;stroke:#000000" />
  <polygon
     transform="translate(25.9971,7.9998)"
     points="422.125,111.245 420.25,110.995 420.25,110.995 420.875,112.745 422.125,112.745 "
     id="polygon3160"
     style="fill:#b3b3b3;fill-opacity:1;stroke:#000000" />
  <polygon
     transform="translate(25.9971,7.9998)"
     points="408,103.245 405.875,104.37 405.875,105.87 403.25,103.995 401.25,104.745 401.875,107.745 403.75,107.12 403.75,109.12 405.75,109.62 407.563,107.807 410.125,106.745 412.25,107.37 415.375,107.37 417.625,105.12 415.5,102.995 416.938,101.557 414.5,100.12 413.25,100.995 413.25,100.995 412,102.245 412,103.62 410.563,105.057 "
     id="polygon3162"
     style="fill:#b3b3b3;fill-opacity:1;stroke:#000000" />
  <polygon
     transform="translate(25.9971,7.9998)"
     points="405.875,100.495 407,101.62 409.125,100.745 410,101.62 410,99.745 408.563,98.307 407.25,98.307 406.125,97.87 406.125,97.87 403.375,97.87 401.75,96.245 400.625,98.495 402.063,99.932 402.625,101.62 "
     id="polygon3164"
     style="fill:#b3b3b3;fill-opacity:1;stroke:#000000" />
  <polygon
     transform="translate(25.9971,7.9998)"
     points="410.125,112.745 408.563,111.057 408.563,111.057 407.5,111.057 407.875,112.62 "
     id="polygon3166"
     style="fill:#b3b3b3;fill-opacity:1;stroke:#000000" />
  <polygon
     transform="translate(25.9971,7.9998)"
     points="409,114.37 407.875,115.495 408.75,116.37 410.875,116.87 409.5,115.495 409,114.37 "
     id="polygon3168"
     style="fill:#b3b3b3;fill-opacity:1;stroke:#000000" />
  <polygon
     transform="translate(25.9971,7.9998)"
     points="420.625,98.62 418.125,98.245 418.125,98.245 418.125,99.87 419.375,99.87 "
     id="polygon3170"
     style="fill:#b3b3b3;fill-opacity:1;stroke:#000000" />
  <path
     inkscape:connector-curvature="0"
     d="m 883.33014,78.1198 1.333,-4.833 5.084,-4.917 5.666,-5.667 2.584,-2.583 5,-2.167 3.582,-2.083 3.334,-3.333 3.417,-3.417 4.167,-1.667 3,-4.333 5.666,-1.667 3,-3.167 3.667,-1.667 2.333,-1.333 2.667,2.667 3.833,-1.167 3.417,2.583 2.25,-2.25 4,-2.167 0,-2 -4,0.833 -4.667,-0.333 -3,-0.833 1,-3 3.167,-2.167 -2.667,-0.667 0,-1.5 1.834,0.168 0.333,-3 1.667,-2.333 2.333,-2.333 4,-1.5 1.167,0 3,-4.167 c 0,0 2.833,-0.833 3.833,-1.833 1,-1 0,2.833 0,2.833 l 2.167,1.833 1.666,1.667 -1.833,3.833 c 0,0 2.5,0 3.5,-1 1,-1 0,2 0,2 l 0,3.5 -3.833,2.5 3,0.5 1.833,-1.833 3.917,1.5 0,-1.75 3.083,3.083 2.167,3.334 1.833,-0.5 1.833,-2.333 0,2.167 1.167,2.667 -3.5,0 0,1.333 2.833,0.833 -1.5,4.333 -3.833,0.333 -3.5,3.833 -1.833,4 -3.5,1.167 -2.5,-1 -3.167,0 -2.833,4.167 1.25,2.5 0,4.25 -2.75,2.75 -2.167,-1.667 -2.167,1.667 -3.166,0 -1.834,-1.5 -1.666,-1 -0.25,1.583 1.25,1.25 -1.5,0.667 -1,1 2.916,0.5 0,2.25 2.25,2.25 3.667,-1 2.5,0 0.166,3.167 1.5,-1.5 2.584,2.584 2.75,2.75 1.333,4.833 0.667,3.833 -2.667,4.333 -2.5,0 -3.5,1.5 -1.166,2.666 2.833,-1.167 1.833,0 -2.666,3.168 1.666,1.666 2.167,-0.833 0,-3.167 2,-1.5 3.583,-0.083 2.084,-2.083 1,-1.667 2.5,0.167 2,-0.333 3.666,-0.167 0,2.333 3,0 0.834,-1.583 2.916,0 1.75,-1.75 2.167,-0.333 1.833,1.5 2.667,-2 1.25,2.917 2.417,2.417 0,3.5 -3.334,1.333 -2.166,4.665 -3.5,0 -1,1.5 3.916,2.583 -1.25,1.25 2.834,4.334 1.166,5.333 0,6 1,4.667 1.667,4 0.834,5.333 1.666,5.167 3.167,2.833 0,4.833 1.66696,6.667 2.833,3.167 1.8331,1.833 -2.8331,2.5 -2.99996,-1.5 -4.167,1.333 -2.166,5 -3.5,5 1.833,1.834 -1.333,4.667 0,2.5 2.833,4.333 0,2.667 -3.167,-1.5 -2.333,-2.334 -2,0.167 1.833,4.833 0,3.167 3.083,1.417 -3.083,3.083 -2,0 0,4.333 -1.833,1.833 2.5,4.167 2,2 2.333,2.333 3.167,3.167 0.666,4.667 0.5,3.667 4.584,2.416 2.74996,2.75 4.6661,0 -1.25,-2.833 0,-1.417 1.584,-1.583 1.167,-2.5 4.333,4.333 0.833,3.833 4.333,3 4.292,0.958 1.708,-1.708 2.75,0 3.25,3.25 -1.333,3.167 -3.333,1 1,4 3.5,5.833 3.083,0.75 2.417,2.417 5.666,-0.667 3.334,2.667 1.166,3 -2,1.333 -2.833,1.833 -1.667,3.667 1.167,6.667 3.333,5.167 2.917,1.083 1.417,1.417 4.833,1.167 0,2 -3.667,0.5 0,3 -1.333,3 1.667,6 2.832,1.167 4.334,4.333 3.167,3 0.667,5.333 1.666,7 0.834,4.5 0,3.333 -1.834,-2.5 -4.833,0 -3.083,-1.583 -2.417,-2.417 -3.333,0 -3,-3 -5.834,-2.667 -5.5,-2.333 -6.333,-3.333 -1.833,-2.5 -3,-2 -3.334,-0.667 -7.166,-2.167 -4.667,-2.5 -4.5001,-3 -2.167,-4 -4.83296,-4.833 -3.333,-3.5 -10e-4,-3.5 -2.333,-2.333 -0.5,-3.833 -2.833,-4 -3.084,-0.667 0,-1.417 1.417,-1.417 1.167,-2.5 -1.583,-2.75 1.5,-1.5 1.25,-1.25 -1.667,-5 -0.833,-5.333 -2,-6.167 -3.167,-4.167 -1.333,-5.5 -1.5,-5.167 -1.667,-4.167 -2,-6.167 -2,-1.667 -0.167,-3.333 1.167,-4 0,-2.333 0,-2.833 -2,-2 -2.167,-4.167 -2.166,0 -2.084,-0.75 -1.916,-1.917 -2.334,-3 -3.5,-2.167 0,-3.833 3.167,-2.999 -1.084,-1.084 -2.583,2.583 -3.666,2 0,3.5 -1,2.667 1.999,1.833 2.917,2.917 2.75,2.75 3.334,0 -0.334,2.167 -1.5,-0.167 -1.583,2.25 2.083,2.083 0,5.333 1.667,4 0.333,6.333 -1.166,3.836 -1.334,-3.333 -3,-1.5 10e-4,4.167 -2.5,-2.5 -1.667,-1.667 -1.334,-2.833 -4.666,-4.333 1.333,3.667 -1.333,4 -4.5,0 0,2.667 -1.5,5.5 -1.834,2.167 0.167,7.333 3,2 -0.5,4.667 3,4.667 0,5 0.917,6.583 2.75,2.75 0,3 2.333,2.333 2.167,-0.333 1.916,-1.75 1.417,-1.417 2.5,0 -0.167,3.167 -2.666,0.833 0,4.5 -5,0.833 1.166,5.833 -0.5,2.5 -3.166,1.332 0,3.5 -1.167,3.167 c 0,0 -3.917,0.917 -3.167,0.167 0.75,-0.75 -1.5,-1.5 -1.5,-1.5 l 0,-2.167 0.667,-2.167 2.75,-0.917 -1.25,-1.25 -3,1.167 -3.167,0.5 0,1.5 -4.666,2.167 -2.334,2.833 -2.666,0.667 -2.167,2.167 -0.833,2.5 0.832,3.167 1.834,1.833 -2.166,2.333 -3.5,-1.333 1.083,3.583 -2.583,2.583 -2.334,2.167 -2,0 -2,1.833 1.334,2.167 1,1 -2.834,1.833 -3.833,0 -3.75,3.75 -2.417,2.417 -2.667,4.5 -2.833,2.833 -2.833,5.667 -0.5,5.5 2.667,5.333 -2.5,2.5 -0.833,5.333 1.499,3.833 2.334,2.333 -2,3.333 0,4.5 0,6 -1,4.167 0,5.667 1.667,1.833 0,4 0,4.5 -1.5,5.667 0,4.667 -2.5,4.167 0,4.166 -1.334,3.667 1.5,3.375 2.542,0 1.958,-1.958 2.749,0 2.168,-2.168 2.416,-2.416 1.667,1.667 2,1 0,2.167 1.584,2.916 2,2 1.75,-1.75 0,-2.666 -2.334,-1 0,-2.5 1.834,-2 0,1.666 2,1.5 1,-0.333 1,1 0,3 0,2.167 3.333,-1.333 0,-1.666 1.833,-2.5 1.167,-1 1.833,1.333 0.417,-2.75 -1.583,-1.583 -1.5,-2.834 -1.834,-3.333 3,-1.666 1.834,-1.834 3.666,-0.833 4.334,0 3.583,0.417 1.583,1.583 c 0,0 3.834,-0.667 4.667,-0.667 0.833,0 3.166,-1.001 3.166,-1.001 l 2.084,2.084 -1.584,1.584 -1.166,1.166 -1,1.834 2.833,0 3,0 0.667,2.166 2.5,2.5 3.084,-0.416 1.583,1.583 1.666,3.167 0.5,6.333 2.167,6.667 3.416,4.916 4.25,4.25 1.667,1.668 0.833,2.832 3.334,3.334 2.333,4 0.834,2.334 3.083,4.75 2.583,2.582 0,7 -1,6 1.834,6 -0.167,6.166 1.833,4.834 1.333,5.334 1,4.832 1,6.5 0,6.33403 -1,3.334 0,6.5 0,8 -1,6 1,6.166 -0.333,8 0,3.834 -3.333,5.5 -2.167,4.666 -2.5,4.668 -2.167,0 -4.166,1.665 -3.5,2 -2.417,-1 0,-2.25 -1.25,-1.25 -1.251,2.834 0,3.082 -1.416,-1.416 -2.166,-2.166 0,1.666 -0.667,4.166 0.667,2.834 -0.917,3.25 -1.417,1.416 0,1.668 0,2.666 -3.166,-0.166 -1.334,-1.334 1.167,-3.834 2,-4 0,-3.332 -1.75,-3.918 -3.583,-3.582 -1.834,-1.834 -1.5,-3.834 -3.166,-3.166 -3,-1 -0.084,-3.25 2.084,-2.084 1.833,-1.832 0,-3.334 2.333,-2.334 2.667,-1.332 2.751,0.916 2.416,-2.416 1.5,-3 -2.667,-4.168 1.333,-3.5 -1.666,-3.666 -0.334,-3.834 -2.333,-3.166 0.667,-2.666 -1.834,-3.168 -0.833,-3.666 -3.333,-3.50003 2.5,-2.5 0,-3.668 -2.083,-2.082 -2.417,-2.418 -0.667,-2.166 -2.833,0 -4,2.166 -1,3.334 -2.667,4.334 -3,3.832 1.334,4.16803 -3.5,2.832 -3.5,2 -3,1 -0.834,3 -3.166,0 -3.167,-1.832 -2.333,-0.834 0,-3.834 -2.667,-2.332 -2.167,-2.168 -3.583,-0.91603 -1.917,1.91603 -3.833,-1 -3.167,-0.83203 -4.833,0.666 -4.5,0 -1.833,1.83403 -5,1.832 -5,-1 -2.083,-4.08203 -2.417,-2.418 c 0,0 -2.83301,-1.666 -2.83301,-2.334 0,-0.668 -3.167,-3.166 -3.167,-3.166 l -4,-0.666 -1.667,-4 -3.834,-3 -2.666,-2.666 -3.667,-1 -1.333,-3.5 -3.334,-1.5 -2,-2 -6.666,-0.668 -3.5,0 -4,2.168 -5,-0.834 -3.834,1.334 -4.166,0 -5.668,4.166 -2.666,2.666 -5.25,3.084 -2.583,2.584 -1.833,5.5 -1.334,3.332 1.834,2.334 2.583,-2.084 2.083,2.084 2.334,2.33403 1.333,5.332 -1.333,2.834 -1,7.166 0,4.5 -1.834,4.668 2.5,4.832 1.5,1.5 0,4.668 -3.5,1 -2.25,5.25 -3.25,3.25 -5.5,2 -6.166,-0.5 -4.5,-0.834 -3.333,2 -4.667,2.666 -3.5,-1.832 -3.167,-1.168 -4.166,1.834 -3.5,3.5 -2.5,2.5 -1.417,4.916 -2.917,2.918 -3.833,2.666 -5.333,2.5 -4.084,4.084 -2.083,2.082 -5.333,0 -4.834,1.5 -6.833,0 -5,0.668 -4.5,-1.5 -1.334,-2.5 -2.333,-2.334 -6.333,0 -5.833,-0.834 -2.334,-1.5 -7.666,1.084 -4.751,0 -3.91601,3.916 -4.333,1 -4.167,1.168 -6,-0.5 -4.082,-1.75 -2.584,-2.584 -2.416,-5.084 -3.084,-3.082 -4.334,-1.666 -4.166,0 -4.75,1.248 -3.25,-3.248 -6.5,0 -3.834,-2.834 -1.917,1.916 -2.583,2.584 -2.083,4.25 -2.25,2.25 -0.667,4.334 2.084,2.5 0,3.748 2.916,2.918 0,4 -3.916,2.584 -3.75,3.75001 -3.167,0 -4.833,0 -4.5,-1.16801 -4.667,0.83401 -3.333,-1.00001 -4.834,-1.668 -2.666,-2.666 -3.167,-3.166 -3.833,-1.166 -4.5,1.832 -2.834,-2.834 -3.583,-1.582 -2.917,2.916 -3.666,0 -1.167,3.5 -4.333,0 -5.5,3.5 -3.334,3.33401 -3.333,0 -0.667,3.5 -3.916,0.916 -2.75,2.75 -5,-0.166 -4.167,2.332 -2.167,2.168 -4.833,-0.834 -1.5,-2.5 -1.833,-3.334 -0.917,-3.416 -2.583,2.584 -4.333,1.666 -4,-1.334 -4.5,-1.166 0,-4 -3.5,-2.16601 -1.333,-3 -2.833,-1.834 -0.667,-4 -2.333,-2.166 -3.12501,-1.375 -2.042,-2.041 -4.25,0 -2.083,2.082 -4.167,0.668 -1.668,-1.668 -3.666,0.666 -2,-2 -1.833,-1.832 0,-2.5 -1.833,-2.166 -2.668,0.832 -1.833,3.834 -3.667,0.666 -2.167,-4.332 -1.167,-3.834 -0.833,-4.334 -2.833,-5 0,-4 -2.667,-2.5 0,-5.5 -2,-6.666 -2.833,-2.834 -1.833,-1.832 -1.917,-4.084 -2.083,-2.084 -2.833,-1.166 0,-3 2.333,0 2,-2.666 -0.833,-2.334 -3,0 -2.5,2.5 -3.5,0.166 -2.583,0.084 -2.75,2.75 -4.667,1.334 -4,2.166 -1.834,-2.666 -3.5,1.666 -2.833,0 1,-4.5 4,-1.834 0,-2.332 -3.333,0 -3,-1.834 -1.833,1.834 -3.333,-1 1.083,-3.918 -2.417,-2.416 -3.333,2 -3.667,-1 -0.917,-2.916 2.084,-2.084 0,-3.166 0.833,-2.33403 -1.333,-4.166 -2.5,-1.168 -3,0 -1.5,-3 -4.167,0 -3.333,-2 -3.667,-0.334 -2,2.834 -4.167,0 -3.667,1 -3,-1.666 -3.667,0.666 -4.5,0 -4.333,-2.25 -1.75,0 -1.917,1.916 -3.333,0.668 -3.167,-1.668 -2.833,0 -3.833,-1.166 -5.667,0.166 -4.167,-0.832 -3,0.832 -2.667,-2.332 -3.833,-2 -3.5,0 -1.167,3.666 1.167,2.5 -2.333,2.334 1.833,1.166 1.833,1.834 2.25,2.25 -2.083,2.08203 -2.333,0 -2.833,-2.83203 -4.333,0.166 -2.83301,1.166 1.16701,4.16803 -1.16701,3 -2.833,0.832 -3.333,-0.832 -1.333,3.5 1.083,2.416 2.333,2.334 1.583,1.582 0.667,2.834 2.333,2.334 -2.333,3.166 -2.167,2.166 -3.667,0 -3.75,0.25 -1.917,-1.916 -1.333,-2.709 -1.708,0 -1.792,1.793 -2.917,0 -3.25,-3.25 -0.625,-1.875 -2.458,-2.459 0,-4.25 -2.084,-2.084 -3.833,0 -3.167,1.168 -1.167,-2.5 -3.167,-2.5 -2.833,-1.5 -3.833,1.834 -3.5,0.5 -2.833,-0.834 -2,-3.834 -2.833,-2.50003 -2,3.33403 -2.167,0 0,-2.666 2,-2.00003 -1.333,-2.834 -1.667,-4.334 -0.667,-4.5 -2.5,-3 -4,-1.5 -1.166,-2.832 -2.167,-2.168 -4,0.668 -2.333,0 0,-3.168 -1.167,-3.332 -4.083,-0.752 -2.083,2.084 -3.833,1.334 -3.333,-1.834 -3.5,0 -1.667,2.5 -3.5,0 -3.833,0 -0.835,1.834 -2.167,2.166 -0.333,3.166 -4.083,-0.748 -2.417,-2.418 0,-3.334 1.084,-3.25 -1.75,-1.75 -2.834,0 -1.167,2.668 -2.167,1.582 -3.25,0 -2.583,2.584 -2.167,2.166 0,3 -2.833,1.168 -3,-0.168 -2.167,2.168 -2.667,1.832 1.083,3.25 2.417,2.418 -1,4.332 -2.167,2.168 2.167,1.33203 3.167,3 2,2 -0.833,4.334 0.917,5.666 0,4.584 -1.75,1.75 -1.667,-1.834 -2.5,-0.332 0.333,3 1.417,2.916 2.083,2.084 -1.667,1.666 -2.833,0.334 -2.333,0 -1.833,0 -1.5,0 c 0,0 -2,0.25 -3.583,0.25 -1.583,0 -1.25,-1.25 -1.25,-1.25 l -2.5,-0.668 -1.166,-1.166 -3,-0.5 0,2.334 -2.333,1 -2.833,3.332 -3.167,0 -3.5,1 -2.042,-0.541 -1.708,1.709 0,2.75 1.75,1.75 1,3.166 -0.833,3.166 -0.75,2.918 -1.917,1.916 0,1.166 -1.667,1.5 -3.667,6 0,4.668 1,5.666 -0.667,4.334 0.333,5.332 -4,1.834 -2.667,-1.166 -3.833,1.332 -3.667,-0.832 -0.5,-3.168 -1.833,-5.5 -0.333,-4 -2.667,-1.832 0,-2.168 -1.333,-3.5 -2.333,-3 1.5,-2.5 1,-2.832 -2.5,-2.668 -0.833,-3 -2.833,-0.332 -0.583,-1.75 -2.085,-2.084 -3.667,-0.5 -2.333,-2.334 -0.667,-5.332 -2.333,-2.168 0.667,-3.332 -2.833,-2.334 -1.5,-3.832 -2.5,-1.168 -3.667,-2.5 -1.167,-4 -2.5,-3.832 -0.833,-3.334 -1.833,-0.334 -1.333,-1.666 -1.667,-2.334 -2.167,0.334 -1.333,-4.00003 0.5,-7.666 -0.667,-5.668 -1.333,-2.832 -1.667,-2.5 0.333,-5 -2,-1.834 -1.333,-2.666 1,-3 -0.833,-3.334 1.833,-1.834 2,-0.332 2.667,3.332 2.5,0.834 1.167,-2.5 2.833,-1.166 3.833,-0.168 2,0 2.5,0.834 0.5,-4.166 -1.333,-2.5 0.667,-2.168 2,0.334 1.833,1.334 2,1.832 1.5,-1.5 2.333,1 3.833,0.5 2.833,1.168 0.667,-3 -2,-1.5 -2.833,-0.668 -1.833,-1.832 -2,-0.668 2.5,-2.666 3.666,-1.666 3.167,1.332 2.833,-1.166 2.667,2.834 4,4.332 3.667,-3.666 2.5,-1.5 -0.667,-3.668 2.333,-2.332 2.333,0.334 -0.167,-2.668 6.167,-0.832 1.167,-2.834 1.333,-1.666 -2.833,-1.334 0,-3.5 -2.667,-3 -1,-3.834 -2.5,-1.5 -2.667,-3 1,-3.5 -1,-5.167 -3.166,-2.332 -3.667,-2.833 -1.167,-3.834 -2.5,-2 -0.833,-2.333 2.167,-2.5 1.667,-3.667 0,-3.5 -1.833,-3.333 -1.833,-2.833 1.667,-1.333 1,-2.5 2,0 1.5,-1.333 1.167,-4.5 0.333,-2.667 -1.334,-3.333 -1.834,-1.834 -2.5,-0.333 -1.833,-2 -1.5,-2.167 -2.25,1.916 -1.75,-1.75 -1.5,-2.5 1.5,-2.667 3.167,-3.167 2.167,-2.5 0.833,-3 2.5,-0.167 1.833,2 1,2.5 3.333,1.168 3.167,-1 0.833,-3.333 1,-3.667 -2.5,-2.5 1.667,-1.167 -0.167,-2.833 1,-4 1.833,-4.333 1.333,-3.667 3.333,-1 1.167,-2.5 3.167,-2.667 0,-5.667 -2.833,-2.666 -3.167,-0.833 1,-2.5 0.833,-2.667 -2.333,-2.333 -1.5,-3.333 0.5,-2.333 3.167,-3.167 1.833,-3.333 -0.833,-3 2.667,-0.667 4,-2.5 0,-3.5 1.667,-2 4.166,-0.167 1.833,-2.167 0.167,-2.5 3.5,-1.333 2.833,-3.833 3.833,0.167 3.333,-2 4.5,1 0.667,-2.5 1.5,-1.5 2.833,1.333 2.333,2.5 3.668,1.166 1.333,3 1.333,3.333 2,-2 -0.333,-4.833 -3,-2.667 0,-5.667 2.667,-0.666 0.833,-0.833 -3.667,-1.5 -2.167,-2.5 37.333,-0.167 7,-2.5 0,-4.333 1.167,-11 4.667,0 4,-3.167 0,-4.333 3,-1.167 0,-5.667 2.667,-0.167 5.833,-4.667 2.833,1.333 6.167,-11.5 0.417,-3.083 5.083,-5.083 8.5,0 2.667,-4.667 0,-9 5.333,-2.667 7,-3.5 4.833,1.833 2.834,0 2.333,2.333 2.862,-1.994 -0.696,3.494 2.833,-0.333 4,0.167 0,2.667 0.833,3 -1.833,-1.167 -1.917,-1.917 -1.75,1.75 0.833,3.167 0,3.167 2.833,1.5 2.167,2.167 0,3.5 2.417,1.167 0,3.917 2.75,2.75 1.333,4.667 0,4.833 -0.833,4.167 1,2.333 0.083,5.083 2.917,2.917 -0.167,3.667 -0.667,6 -2.917,5.083 -4.417,4.417 -4.667,0 -5.167,1 -4.5,-1.667 -4.917,-2.75 -3.079,-3.084 0,-4.5 -3.167,-3.167 -1.5,-3.5 -1.167,-3.333 -2.166,-3.666 -1.167,-6.167 -2.333,-1 0.75,-3.75 1.917,-1.917 -2.333,-2.333 -1.083,2.917 -1.583,1.583 0.667,3.667 0.083,4.25 -1.833,1.833 2.417,2.417 -0.667,3.667 -2.333,5.167 -4.083,1.25 -3.25,3.25 -1.25,5.917 -3.083,3.083 1,3.5 1.5,4.333 -2.417,4.25 3.417,3.417 3.664,3.666 4.167,-3 0.833,-4.166 -2.167,-2.167 0.333,-3.667 0,-2.833 2.833,-3 2.833,0 1,7.5 0.917,4.917 2.917,2.917 1.833,3.833 4.75,1.417 1.417,-1.417 -1.167,-2.833 2.833,-2.333 0.167,-5.833 5.167,0.833 4.833,-1.833 4,2.167 4.5,-1.417 3.083,0 1.918,1.915 2.833,4.333 -2.333,2.333 0,3.667 2.083,-2.583 2.917,-2.917 4.00001,-0.833 3.333,-4.833 0,-4.167 1.333,-2.833 4.333,-2.167 0,-2.667 4.167,-2.5 0,-4.167 -0.667,-4 2.833,0 0.917,2.083 3.75,3.75 2.833,4.333 0,5.833 -1,3 -1.5,1.5 -2.5,-2.5 -3.5,-0.833 -5.333,1.833 0,4.333 1.333,4 0,3.333 3.833,1 3.667,1.667 4.167,-2 0,-3 4.333,-1 4.167,2 -0.667,-2.667 6.5,1.167 3.5,-0.667 6.333,0.833 3.667,0 1.833,3.333 1.667,0 0,-3 5.333,-1.667 2.835,0 1.167,4.333 -3.167,0 -1,3 -2.5,0.833 3.833,3.5 2.667,0 5,-2.167 4.75,0.917 5.167,5.167 1.75,-1.75 3.5,0 4.417,-1.417 1.75,1.75 -0.5,2.333 -2.667,1.833 0,2.833 3.167,2.667 0.25,-3.083 1.417,-1.417 3.333,0.833 0,-2.667 3.167,-0.5 0.667,-4 -0.5,-4.833 3,-1.5 2.583,-0.75 3.083,3.083 1.333,-1.333 3.417,4.25 3.917,3.917 3.167,3.167 2.083,4.25 3.917,3.917 2.667,4.167 2.833,3.833 0,3.333 2.332,3.671 3.333,-2 0,-3.5 3.833,-3.5 -2.667,-0.833 -1.833,-4.333 0.667,-4.667 -3.167,-2.167 -1.75,-3.583 1.583,-1.583 3.333,-1.667 0,-2.667 0.833,-4 1.5,-2 0,-2.5 -2.167,-0.667 1.167,-3.333 1.833,-2.333 3.333,-1.167 3.583,-1.75 1.25,-1.25 2.833,-2.833 2.167,-4.833 1.667,-4 1.833,-4 3.167,-1.667 2,2.833 4,0 2,2 3.5,0 1.5,5.667 -1.667,1.667 -0.75,6.083 -4.75,4.75 -1.333,4.333 2.833,2.5 -1,5.667 -0.833,4.5 -3.333,5 -1.167,7.167 -1.833,6.333 -1.333,3.167 1.25,4.417 2.917,2.917 -0.5,2.667 -3.667,2.833 -0.667,6.167 -3.667,1 -4.333,4.333 -2.5,3.667 -2.333,1.333 -4.167,-0.833 -2.5,1.667 -2.75,-1.75 -1.75,-1.75 -2.5,-0.833 0,3.167 2.5,3.833 2.5,1.167 3.333,2.333 2.833,-0.167 2,2.833 3,0 c 0,0 1.25,-2.25 0.583,-2.917 -0.667,-0.667 1.75,-1.75 1.75,-1.75 l 2.167,0 1,-1 4.167,-1.167 3.333,-1.833 0,-3.5 1.5,-1.5 2.583,-2.583 2.083,-2.083 1,-4 -0.833,-3.5 -0.333,-3.167 2.25,-2.25 2.25,-2.25 3.5,0 3.833,-0.5 1.083,3.25 1.583,1.583 2,5.167 -2.663,2.665 0.167,4 0,2.5 3.333,3.333 3.833,0.833 0,-2.333 -3.75,-1.083 -1.417,-1.417 0,-2 -0.333,-3 2.667,-0.833 1,-2.167 -1,-3.167 1.167,-2.667 -1.667,-3.333 -2.167,-2 -1.333,-1.333 -4.083,-1.417 -2.333,-2.333 -1.917,1.917 -2.5,1.167 -1.333,-1.833 -3,0 -0.5,-3.167 2,-2 -0.5,-5.333 2.333,-3.667 1.5,-4.333 3.333,-3.333 -1.167,-3.667 -1,-3.167 0.417,-3.416 -2.417,-2.417 2.667,-2.667 4.167,-4.167 3.5,0 2,-3.167 1.333,-3.5 -1.167,-2.833 1.167,-2.5 2.667,0 -0.833,3.5 0,4.833 -0.667,4.333 -3,3 0,4.167 0,3 3.5,2.667 2,1.667 2.583,-1.583 2.583,2.583 2.833,2.667 0,-2 -1.083,-2.583 -1.917,-1.917 -3,-1.5 0,-1.333 -2.5,-2.5 -1.166,-3.668 3.5,-2.333 1.667,1.667 2.667,2.667 2.00001,-1.833 -0.66701,-2.167 -0.25,-1.917 1.91701,-1.917 3.333,0.667 2.75,-0.417 2.25,2.25 4.333,2.333 -1.167,3.333 1.083,1.083 2.917,2.917 4.5,0 0.667,-2.667 -1.833,-2.5 0.167,-2.333 -3.167,-1.167 -2.333,-3.833 -1.334,-1.333 1,-4 1.5,-3.333 -1.333,-1.333 -0.833,-4.167 3.333,-3 7.833,0 4,1.5 0,-1 6.5,0 4.333,-1.833 3.166,0 1.667,-1.667 -1.667,-2.5 -2,-0.667 -1.667,-1.667 c 0,0 0.667,-0.667 1.917,-1.917 1.25,-1.25 1.25,1.25 1.25,1.25 l 2,-0.5 -1.333,-1.5 0.917,-2.083 -1.417,-1.417 1.667,-2.333 2.333,-1.833 -2.333,-0.167 -0.167,-2.5 4.667,0.167 1.833,-3.833 4.583,-1.75 1.75,-1.75 6.25,-0.917 1.583,-1.583 4.5,-1.333 1,-1.167 -3,-1 1.667,-1.667 4.333,-1 3.667,-0.5 0.833,-1.833 3,-0.5 -1.583,3 0,2.417 2.083,-2.083 5.168,0.166 0.5,-2.667 3.333,-0.667 3.333,0.667 -1.5,-2 -2,-1.5 -1,-1.833 3.667,0 3.833,-1.167 1.167,0 -0.333,-2.833 -1.334,-1 0,-4 0.834,-2.667 2.5,-6.167 3,-2.167 2.666,-2.833 3.334,2 2.5,-0.333 0.75,3.417 -2.584,2.583 -2.166,2.833 5.291,0.292 1.042,-1.042 3.25,0 2.417,2.417 -2.167,2.167 c 0,0 -0.167,2.167 0.833,2.167 1,0 3.667,1.167 3.667,1.167 l 0.833,-2.833 -1.5,-1.5 3.667,-2 3.333,0 3.417,-2.417 1.917,1.917 2.583,-1.25 1.917,1.917 1.666,3.333 2,1.667 1.167,-1.333 1.75,1.75 2.25,2.25 -0.333,3.5 -3.334,-0.667 1.334,1.333 3.333,1.833 2.083,3.583 -1.916,1.916 0,3.333 -1.667,2.333 -1.583,3.25 -1.917,1.917 -3.333,4 0,1.667 -1,4.667 -2.5,2.5 -1,5.167 -4,1 -1.25,3.75 -2.75,2.75 -0.667,4.333 -0.833,3 3,-1.333 -0.667,-3.333 3,-1.833 c 0,0 2.667,-0.833 4.167,-0.833 1.5,0 2,-3 2,-3 l 2.833,-2.333 2.667,-1 1.583,-3.083 -1.25,-1.25 -2,-0.167 0.167,-1.335 -0.167,-2.667 2.5,-0.167 2,0 2.833,0.667 3.334,1.333 0.666,-2 2.084,-2.917 1.75,1.75 0,3.333 2,2.833 2.333,0 -2.333,-2.165 1.583,-1.583 3.083,-3.083 4.167,-2.167 6.333,-1.167 5,-1.5 1.251,1.917 -1.167,1.167 2.75,2.75 5.166,0 0.167,-1.333 0.5,-1.833 2,3.167 3.5,-1.333 3.50001,-3 c 0,0 3.667,-0.667 4.5,-0.667 0.833,0 0,-3 0,-3 l -0.5,-3.333 -2.5,-3.833 0.667,-3.833 0.5,-2 2,2 2.083,-1.583 1.75,1.75 2.667,1.833 0.666,-2 1.334,-0.336 1.333,1.5 1.333,-1 c 0,0 -0.166,-3.083 1.084,-3.083 1.25,0 1.583,-1.583 1.583,-1.583 l 3.667,2.833 1.166,-1.167 4,1.333 -1.333,4.083 1.916,0 1.917,1.917 0,3.167 3.167,-2 1.667,1.667 0,3.667 -2.167,0.667 -1.333,1.332 2.333,2.333 c 0,0 1.833,-0.833 1.833,-1.667 0,-0.834 1.5,1.5 1.5,1.5 l 0,2.667 3.417,-0.084 3.25,3.25 2.5,1.667 3.5,0.667 1.5,-1.5 3.833,2 0.334,-3.166 -1.667,-5.5 -1,-2.5 0,-2.333 -2.167,-2.167 0,-3 4.167,0.5 2.333,2.333 3.667,-1 4.167,0 -0.834,-4.333 2.334,-4.333 4.333,-1 3.167,-0.167 3.666,1 0,-2.5 -3.916,-1.75 1.416,-1.417 1.834,-2 3.166,0.167 2.5,-2.5 -1.166,-0.667 -2.5,-2.5 -2.834,-1.5 0,-3.667 -1.166,-1 -1.667,4.333 -2,-1.333 0,-3.5 3.667,-3.333 -0.5,-2.333 -3.5,-2.167 2.166,-2.167 3.167,0 4.667,-2.333 1.333,-3.833 6.167,-2.333 4.833,-2.167 c 0,0 0.667,0.667 0.667,1.667 0,1 -3.167,2.167 -3.167,2.167 l -1.167,4.5 2.834,-1.334 2.5,-2.5 3.166,1 -0.833,6.5 2.833,-2.667 0,-3.167 -1,-5.333 0.667,-2.333 1.5,-4.167 3.5,-1.667 5,-2.167 3,2.167 c 0,0 -1.417,1.917 -2.5,3 -1.083,1.083 1.167,1.834 1.167,1.834 l 3.666,0 2.334,-2.667 c 0,0 2.666,2.833 3.166,3.333 0.5,0.5 -0.5,-3.833 -0.5,-3.833 l 4.5,-2.5 3.167,1.667 3.5,-0.166 3.167,-3.167 3.333,-4.167 0,-4.833 4.167,-6.167 3.5,-3.5 3.166,-3.833 5.5,-0.833 4.584,-0.25 2.25,2.25 4.666,4.667 4.167,-1.833 3,-2.417 3.25,0 -1.583,-1.584 0,-2.334 3.166,-3.166 0,-5.5 1.5,-2.833 2.5,0 2.167,-2.167 0,-3.333 4.167,-3 1,-4 -1.667,-1.667 0.667,-2 -2.333,-3.333 1.833,-3.334 1.75,-1.75 3.16701,3.167 -2.41701,2.417 2.50001,2.5 3.833,0 2.667,-1 3.667,-1.667 3.333,-0.833 0.833,-2.667 -1,-2.667 -1.833,-0.333 -5.667,-2.5 -4.166,0.667 -1,-2.333 -3.33401,0 0,-1.833 0.834,-3.167 3.00001,-1.5 0.333,-3.5 2.667,-1.5 2.333,0 -1,-2.833 1,-3 2.833,-4.168 z"
     id="path3172"
     style="fill:#b3b3b3;fill-opacity:1;stroke:#000000;stroke-width:1" />
  <polygon
     transform="translate(25.9971,7.9998)"
     points="883.467,390.207 880.727,390.784 880.727,390.784 879.285,392.37 879.285,394.388 879.285,396.551 881.736,395.542 883.035,396.84 884.477,395.399 885.053,392.513 "
     id="polygon3174"
     style="fill:#b3b3b3;fill-opacity:1;stroke:#000000" />
  <path
     inkscape:connector-curvature="0"
     d="m 946.81214,383.9308 -1.154,0.289 -0.864,-2.452 0,-2.163 3.749,1.009 1.874,0.865 1.01,2.308 2.019,2.019 3.605,0.721 0.865,2.307 4.037,2.596 2.163,0 1.73,2.451 1.442,3.894 2.235,2.234 4.254,4.399 2.739,0.721 3.75,1.442 3.605,3.173 4.903,2.739 3.172,2.74 4.183,2.163 3.604,2.163 2.30796,1.874 4.0371,1.587 -0.576,1.875 -1.4411,1.441 -2.74,0.865 -2.16296,0 0.577,3.028 -0.577,2.163 0,1.73 2.45096,3.75 c 0,0 2.309,2.594 1.875,3.027 -0.434,0.433 0.145,4.471 0.145,4.471 l 1.8751,1.875 2.884,2.885 2.451,1.586 3.749,0 2.163,2.162 2.451,0 1.298,2.74 3.173,0.145 1.946,-1.947 3.389,1.947 2.02,2.596 c 0,0 0.722,1.73 0,1.73 -0.722,0 -4.615,-1.875 -4.615,-1.875 l -1.658,1.658 -3.677,0 -1.153,2.957 0.721,2.883 2.307,2.307 1.73,3.75 -2.307,1.875 -1.875,-2.307 -2.451,-2.453 -4.326,-4.037 0,-2.74 -2.884,-2.883 -2.739,-2.74 -1.875,-2.451 -2.3081,-4.471 -2.884,-2.74 -3.02796,-1.73 -2.884,-0.865 -2.453,-5.191 -5.335,-7.354 -4.326,-4.327 -3.604,-3.604 -3.174,-4.326 -2.019,-3.316 -5.479,-2.452 -4.326,-1.874 -2.596,-0.289 -3.461,-4.759 0,-2.162 -3.749,-3.75 -2.019,-3.749 -4.038,-1.298 1.01,-2.884 0,-2.163 3.316,1.009 0.577,-2.884 -1.946,-1.946 0,-1.082 -1.911,-1.912 -2.777,-0.973 z"
     id="path3176"
     style="fill:#b3b3b3;fill-opacity:1;stroke:#000000;stroke-width:1" />
  <polygon
     transform="translate(25.9971,7.9998)"
     points="1042.666,451.203 1043.243,454.23 1043.531,457.115 1044.686,457.547 1044.686,455.24 1045.551,453.365 1045.551,450.77 1042.666,451.203 "
     id="polygon3178"
     style="fill:#b3b3b3;fill-opacity:1;stroke:#000000" />
  <polygon
     transform="translate(25.9971,7.9998)"
     points="1054.491,453.076 1052.616,452.934 1052.616,452.934 1052.616,454.23 1054.491,455.24 "
     id="polygon3180"
     style="fill:#b3b3b3;fill-opacity:1;stroke:#000000" />
  <polygon
     transform="translate(25.9971,7.9998)"
     points="1049.732,433.467 1049.444,430.148 1046.992,429.428 1046.271,433.178 1047.209,434.113 1046.416,436.926 1046.704,441.252 1046.704,441.252 1048.435,441.973 1049.012,439.666 1048.146,435.053 "
     id="polygon3182"
     style="fill:#b3b3b3;fill-opacity:1;stroke:#000000" />
  <polygon
     transform="translate(25.9971,7.9998)"
     points="1052.04,423.66 1051.03,422.217 1051.03,422.217 1050.309,422.938 1050.886,425.391 "
     id="polygon3184"
     style="fill:#b3b3b3;fill-opacity:1;stroke:#000000" />
  <polygon
     transform="translate(25.9971,7.9998)"
     points="1054.635,413.853 1052.761,413.42 1052.761,413.42 1053.481,409.671 1052.473,407.365 1053.049,404.913 1054.996,402.965 1055.5,405.634 1055.067,408.374 1055.645,411.546 "
     id="polygon3186"
     style="fill:#b3b3b3;fill-opacity:1;stroke:#000000" />
  <polygon
     transform="translate(25.9971,7.9998)"
     points="975.18,199.279 975.18,195.242 972.439,194.088 970.709,195.098 970.709,195.098 970.709,198.27 970.421,201.154 972.151,202.308 973.305,203.75 973.449,206.345 975.757,207.21 975.18,204.615 974.17,202.596 "
     id="polygon3188"
     style="fill:#b3b3b3;fill-opacity:1;stroke:#000000" />
  <polygon
     transform="translate(25.9971,7.9998)"
     points="1029.256,213.123 1032.717,213.123 1034.88,210.96 1032.14,210.095 1029.399,211.249 1026.804,210.239 1026.804,210.239 1024.785,210.96 1025.795,213.123 "
     id="polygon3190"
     style="fill:#b3b3b3;fill-opacity:1;stroke:#000000" />
  <polygon
     transform="translate(25.9971,7.9998)"
     points="1036.107,322.068 1037.044,324.014 1036.756,326.61 1036.611,329.926 1038.125,331.44 1039.784,330.503 1039.784,327.042 1041.298,325.529 1040.072,322.572 1038.054,320.553 1038.197,317.958 1036.756,316.516 1036.756,316.516 1035.891,319.111 1034.521,320.481 "
     id="polygon3192"
     style="fill:#b3b3b3;fill-opacity:1;stroke:#000000" />
  <polygon
     transform="translate(25.9971,7.9998)"
     points="1045.408,340.598 1042.956,339.011 1042.956,339.011 1042.956,341.174 1044.398,341.895 "
     id="polygon3194"
     style="fill:#b3b3b3;fill-opacity:1;stroke:#000000" />
  <polygon
     transform="translate(25.9971,7.9998)"
     points="1054.637,381.263 1054.637,384.436 1054.637,387.031 1056.656,387.031 1056.079,384.58 1056.079,382.993 1056.079,381.119 1054.637,381.263 "
     id="polygon3196"
     style="fill:#b3b3b3;fill-opacity:1;stroke:#000000" />
  <polygon
     transform="translate(25.9971,7.9998)"
     points="1039.065,202.738 1037.19,204.036 1038.199,205.045 1039.569,203.675 1040.939,202.305 1039.065,202.738 "
     id="polygon3198"
     style="fill:#b3b3b3;fill-opacity:1;stroke:#000000" />
  <polygon
     transform="translate(25.9971,7.9998)"
     points="850.041,43.398 848.553,41.799 850.758,38.601 850.372,35.128 850.372,30.993 848.222,29.284 848.222,29.284 846.898,28.788 845.741,30 843.205,31.324 841.138,33.391 841.33,36.947 840.448,37.83 840.889,40.696 842.543,43.122 844.252,47.092 846.898,47.643 848.69,45.851 "
     id="polygon3200"
     style="fill:#b3b3b3;fill-opacity:1;stroke:#000000" />
  <polygon
     transform="translate(25.9971,7.9998)"
     points="21.541,258.137 24.135,258.719 26.358,258.084 27.205,256.443 29.216,256.761 31.096,258.64 31.175,261.207 32.71,261.684 33.028,263.695 35.41,264.119 35.939,262.213 34.643,260.916 35.754,259.805 36.469,260.52 38.745,262.425 38.745,265.283 38.427,267.771 39.75,269.941 41.074,270.841 41.55,274.07 40.386,276.505 34.828,279.311 26.411,269.306 21.541,258.137 "
     id="polygon3202"
     style="fill:#b3b3b3;fill-opacity:1;stroke:#000000" />
  <g
     transform="translate(25.9971,7.9998)"
     id="Subjects_Outline-8"
     style="fill:#b3b3b3;fill-opacity:1;stroke:#000000">
    <path
       inkscape:connector-curvature="0"
       style="fill:#b3b3b3;fill-opacity:1;stroke:#000000;stroke-width:1;stroke-linecap:round;stroke-linejoin:miter;stroke-miterlimit:4;stroke-dasharray:none;stroke-opacity:1"
       d="m 1.4632658,433.83417 -0.90788999,-0.79468 -1.14479,-0.91032 -0.84322001,-0.61441 -0.77957,-0.5225 -3.09254,-0.0774 -1.79976,0.20628 -1.52093,-0.87667 -1.4955698,-0.46411 -0.86186,-0.54148 -1.31814,1.18608 0.17744,1.65019 1.29279,0.67038 1.4955798,0.46412 0.86185,2.39793 0.17744,1.85646 -0.45627,1.49548 0.22814,2.06273 -0.63372,1.93381 -2.1292998,1.05715 -1.11534,1.16029 -1.62232,0.18048 -1.21674,1.98538 0.65907,2.42371 0.60837,1.80489 2.40813,1.59862 2.6362698,-0.28363 1.54627,-0.79931 2.33208,-1.08293 1.69837,0.46412 2.17999,1.41812 0.64612001,1.20641 0.59904,0.76127 1.11263999,1.01228 2.55817,0.88431 2.63991,0.0416 2.9768102,-0.0391 1.21572,2.50997 0.69261,1.8182 3.49618,2.25988 3.40297,0.64449 1.20584,-1.95822 2.8495,0.43927 -2.71707,-2.74654 -0.30568,-1.10652 -0.49709,-0.8408 -0.52505,-0.56077 -3.03002,-0.48319 -3.33169,-1.82721 -2.37198,-3.67328 1.47862,-2.19145 0.69123,-3.19701 -0.39375,-2.90554 -0.41956,-0.39923 -0.9488204,-0.70876 -0.1779,-0.53025 0.7227204,-3.16002 -1.69176,-1.69169 -0.0631,-2.61992 -1.9488802,-0.32301 -0.32272,1.30797 -1.60424,-0.14821 -2.09202,0.34651 z"
       id="path23925-7-8"
       sodipodi:nodetypes="cccccccccccccccccccccccccccccccccccccccccccccccccccccccccccccccc" />
  </g>
  <path
     inkscape:connector-curvature="0"
     d="m 944.5,494.11902 -4,2.166 -1,3.334 -2.667,4.334 -3,3.832 1.334,4.168 -3.5,2.832 -3.5,2 -3,1 -0.834,3 -3.166,0 -3.167,-1.832 -2.333,-0.834 0,-3.834 -2.667,-2.332 -2.167,-2.168 -0.349,-3.686 0.776,-1.969 -0.745,-2.609 1.625,-0.654 1.771,0.346 1.756,-2.734 1.531,-1.531 -0.285,-3.49 2.707,-0.355 2.85,0.498 3.777,-1.781 2.707,1.283 3.277,3.918 2.137,-2.922 c 0,0 4.35,-0.787 4.561,-0.996 0.211,-0.211 1.709,-3.135 1.709,-3.135 l 3.42,-0.428 2.851,-1.141 -0.285,2.707 1.068,1.07 -0.359,1.943 -2.833,0 0,0 z"
     id="YEV"
     style="fill:#fece2c;fill-opacity:1;stroke:#000000" />
  <g
     transform="translate(26.000002,8.0000247)"
     id="Kuril Islands"
     style="fill:#fece2c;fill-opacity:1;stroke:#000000">
    <polygon
       points="1044.686,455.24 1045.551,453.365 1045.551,450.77 1042.666,451.203 1042.666,451.203 1043.243,454.23 1043.531,457.115 1044.686,457.547 "
       id="polygon3612"
       style="fill:#fece2c;fill-opacity:1" />
    <polygon
       points="1054.491,453.076 1052.616,452.934 1052.616,452.934 1052.616,454.23 1054.491,455.24 "
       id="polygon3614"
       style="fill:#fece2c;fill-opacity:1" />
    <polygon
       points="1046.992,429.428 1046.271,433.178 1047.209,434.113 1046.416,436.926 1046.704,441.252 1046.704,441.252 1048.435,441.973 1049.012,439.666 1048.146,435.053 1049.732,433.467 1049.444,430.148 "
       id="polygon3616"
       style="fill:#fece2c;fill-opacity:1" />
    <polygon
       points="1052.04,423.66 1051.03,422.217 1051.03,422.217 1050.309,422.938 1050.886,425.391 "
       id="polygon3618"
       style="fill:#fece2c;fill-opacity:1" />
    <polygon
       points="1054.635,413.853 1052.761,413.42 1052.761,413.42 1053.481,409.671 1052.473,407.365 1053.049,404.913 1054.996,402.965 1055.5,405.634 1055.067,408.374 1055.645,411.546 "
       id="polygon3620"
       style="fill:#fece2c;fill-opacity:1" />
    <polygon
       points="1056.079,384.58 1056.079,382.993 1056.079,381.119 1054.637,381.262 1054.637,381.262 1054.637,384.436 1054.637,387.031 1056.656,387.031 "
       id="polygon3622"
       style="fill:#fece2c;fill-opacity:1" />
  </g>
</svg>
