<svg id="_x33_0" enable-background="new 0 0 64 64" height="512" viewBox="0 0 64 64" width="512" xmlns="http://www.w3.org/2000/svg" xmlns:xlink="http://www.w3.org/1999/xlink"><linearGradient id="SVGID_1_" gradientUnits="userSpaceOnUse" x1="32" x2="32" y1="63" y2=".338"><stop offset="0" stop-color="#9f2fff"/><stop offset="1" stop-color="#0bb1d3"/></linearGradient><path d="m50.504 1.136-1.369-.798-.131 1.579c-.5 5.988-5.432 10.712-11.369 11.05l1.582-3.164-7.217-7.217-7.217 7.217 1.582 3.164c-5.937-.338-10.87-5.062-11.369-11.05l-.131-1.579-1.369.798c-7.708 4.496-12.496 12.833-12.496 21.757v.215c0 8.924 4.788 17.26 12.496 21.756l1.369.798.131-1.579c.465-5.568 4.763-10.043 10.136-10.917-.077.267-.132.543-.132.834 0 1.302.839 2.402 2 2.816v26.184h10v-26.184c1.161-.414 2-1.514 2-2.816 0-.291-.055-.567-.133-.834 5.374.874 9.672 5.349 10.136 10.917l.131 1.579 1.369-.798c7.709-4.496 12.497-12.833 12.497-21.757v-.215c0-8.923-4.788-17.26-12.496-21.756zm-17.504 32.864c0 .551-.448 1-1 1s-1-.449-1-1 .448-1 1-1 1 .449 1 1zm-5 1c-.552 0-1-.449-1-1s.448-1 1-1h1.184c-.112.314-.184.648-.184 1s.072.686.184 1zm1-4v-16h6v16zm-2-1.245-7.505-6.755 7.505-6.755zm10-13.51 7.505 6.755-7.505 6.755zm-5-10.831 4.783 4.783-1.401 2.803h-6.764l-1.401-2.803zm-18.772 36.92c-6.345-4.282-10.228-11.516-10.228-19.227v-.215c0-7.71 3.883-14.945 10.228-19.227.131.651.319 1.281.537 1.897-5.576 4.354-8.765 10.63-8.765 17.341v.194c0 6.711 3.189 12.987 8.764 17.341-.218.615-.406 1.245-.536 1.896zm1.365-3.784c-4.84-3.955-7.593-9.525-7.593-15.453v-.194c0-5.928 2.753-11.498 7.593-15.453 2.151 4.05 6.214 6.93 10.907 7.455l-8.995 8.095 8.996 8.096c-4.694.524-8.756 3.404-10.908 7.454zm14.407 22.45v-24h6v24zm7-26h-1.184c.112-.314.184-.648.184-1s-.072-.686-.184-1h1.184c.552 0 1 .449 1 1s-.448 1-1 1zm2.5-3.904 8.995-8.096-8.995-8.096c4.693-.525 8.756-3.404 10.907-7.455 4.84 3.956 7.593 9.526 7.593 15.454v.194c0 5.928-2.753 11.498-7.593 15.453-2.152-4.05-6.215-6.93-10.907-7.454zm22.5-7.989c0 7.71-3.883 14.945-10.228 19.227-.131-.651-.319-1.281-.537-1.897 5.576-4.353 8.765-10.629 8.765-17.34v-.194c0-6.711-3.189-12.987-8.764-17.341.218-.615.406-1.245.537-1.897 6.344 4.283 10.227 11.517 10.227 19.228zm-20-.107c0 .552-.448 1-1 1s-1-.448-1-1 .448-1 1-1 1 .448 1 1zm-18 0c0-.552.448-1 1-1s1 .448 1 1-.448 1-1 1-1-.448-1-1zm10 17c0 .552-.448 1-1 1s-1-.448-1-1 .448-1 1-1 1 .448 1 1zm0 6c0 .552-.448 1-1 1s-1-.448-1-1 .448-1 1-1 1 .448 1 1zm0 6c0 .552-.448 1-1 1s-1-.448-1-1 .448-1 1-1 1 .448 1 1zm0 6c0 .552-.448 1-1 1s-1-.448-1-1 .448-1 1-1 1 .448 1 1z" fill="url(#SVGID_1_)"/></svg>