<svg id="Capa_1" enable-background="new 0 0 512.29 512.29" height="512" viewBox="0 0 512.29 512.29" width="512" xmlns="http://www.w3.org/2000/svg"><g><path d="m256.145 226.145c-16.542 0-30 13.458-30 30s13.458 30 30 30 30-13.458 30-30-13.458-30-30-30zm0 45c-8.271 0-15-6.729-15-15s6.729-15 15-15 15 6.729 15 15-6.729 15-15 15z"/><path d="m512.29 256.208c0-14.507-6.438-28.111-17.665-37.325-3.881-3.185-8.172-5.687-12.704-7.501 3.61-3.409 6.692-7.399 9.088-11.88 6.775-12.676 7.434-27.737 1.808-41.321-5.552-13.403-16.707-23.507-30.604-27.723-4.805-1.458-9.727-2.127-14.607-2.069 2.03-4.531 3.351-9.397 3.849-14.454 1.409-14.304-3.746-28.47-14.143-38.867-10.258-10.258-24.43-15.324-38.884-13.902-4.997.492-9.8 1.757-14.287 3.679.142-4.963-.5-9.964-1.975-14.826-4.172-13.754-14.356-24.87-27.94-30.497-13.403-5.551-28.437-4.809-41.244 2.037-4.428 2.367-8.382 5.374-11.792 8.866-1.768-4.64-4.275-9.014-7.499-12.942-9.117-11.111-22.78-17.483-37.483-17.483-14.507 0-28.111 6.438-37.325 17.665-3.185 3.881-5.687 8.172-7.501 12.704-3.409-3.61-7.399-6.692-11.88-9.087-12.677-6.775-27.738-7.435-41.321-1.808-13.403 5.552-23.507 16.707-27.723 30.604-1.458 4.805-2.127 9.726-2.068 14.608-4.531-2.03-9.397-3.351-14.454-3.849-14.304-1.409-28.471 3.746-38.867 14.143-10.259 10.257-15.326 24.429-13.903 38.882.492 4.997 1.757 9.8 3.679 14.287-4.963-.142-9.964.5-14.826 1.975-13.754 4.172-24.87 14.356-30.497 27.94-5.552 13.403-4.809 28.436 2.037 41.244 2.367 4.428 5.374 8.382 8.867 11.792-4.64 1.768-9.014 4.275-12.942 7.498-11.112 9.118-17.484 22.781-17.484 37.484 0 14.507 6.438 28.111 17.665 37.325 3.88 3.184 8.164 5.697 12.694 7.511-3.605 3.407-6.684 7.393-9.077 11.871-6.775 12.676-7.434 27.737-1.808 41.321 5.552 13.403 16.707 23.507 30.604 27.723 4.616 1.4 9.34 2.09 14.032 2.09.191 0 .381-.008.571-.01-2.028 4.528-3.347 9.39-3.845 14.444-1.409 14.304 3.746 28.47 14.143 38.867 9.121 9.121 21.335 14.138 34.091 14.138 1.59 0 3.191-.078 4.793-.236 4.997-.492 9.8-1.757 14.287-3.679-.142 4.963.5 9.964 1.975 14.826 4.172 13.754 14.356 24.87 27.94 30.497 5.951 2.465 12.223 3.689 18.479 3.689 7.834 0 15.644-1.919 22.764-5.726 4.428-2.367 8.382-5.374 11.792-8.866 1.768 4.64 4.275 9.014 7.499 12.942 9.118 11.111 22.781 17.483 37.484 17.483 14.507 0 28.111-6.438 37.325-17.665 3.185-3.881 5.687-8.172 7.501-12.704 3.409 3.61 7.399 6.692 11.88 9.087 6.969 3.725 14.656 5.601 22.424 5.601 6.362 0 12.781-1.26 18.897-3.793 13.403-5.552 23.507-16.707 27.723-30.604 1.458-4.805 2.127-9.726 2.068-14.608 4.531 2.03 9.397 3.351 14.454 3.849 1.552.153 3.102.229 4.646.229 12.687 0 24.952-5.103 34.22-14.371 10.258-10.258 15.325-24.431 13.902-38.884-.492-4.995-1.756-9.796-3.676-14.281.44.013.881.025 1.322.025 4.526 0 9.072-.662 13.502-2.006 13.754-4.172 24.87-14.356 30.497-27.94 5.552-13.403 4.809-28.436-2.037-41.244-2.367-4.428-5.373-8.381-8.866-11.791 4.64-1.769 9.013-4.276 12.941-7.499 11.112-9.119 17.484-22.782 17.484-37.485zm-54.432-111.396c9.583 2.907 17.274 9.872 21.1 19.109 3.901 9.419 3.472 19.81-1.178 28.51-4.559 8.529-12.397 14.285-22.121 16.22l-17.766 3.659c-3.288-7.627-9.118-13.974-16.677-17.932-2.561-1.342-5.238-2.364-7.974-3.079 1.547-2.614 2.793-5.432 3.673-8.423 2.394-8.138 1.909-16.678-1.237-24.35l14.206-9.632c8.264-5.47 18.454-6.971 27.974-4.082zm-167.747 280.587c-6.51 1.409-13.212-.176-18.387-4.35-5.177-4.176-8.146-10.385-8.146-17.035v-81.3c1.909.119 3.836.01 5.736-.367 1.855-.369 3.636-.985 5.319-1.795l30.853 74.618c2.564 6.189 2.249 13.149-.865 19.094-3 5.73-8.288 9.788-14.51 11.135zm-41.584-21.925c0 6.7-2.955 13.009-8.106 17.31-4.964 4.145-11.402 5.869-17.666 4.733-6.554-1.189-12.14-5.218-15.323-11.055-3.185-5.839-3.552-12.712-1.007-18.855l31.113-75.113c1.718.84 3.54 1.476 5.439 1.854 1.438.286 2.892.427 4.342.426.42 0 .84-.015 1.259-.038v80.738zm-91.182-246.277c1.464-1.464 2.197-3.384 2.197-5.303s-.732-3.839-2.197-5.303c-4.737-4.737-7.109-11.288-6.508-17.972.58-6.44 3.912-12.213 9.144-15.838 5.477-3.794 12.276-4.894 18.652-3.018 6.381 1.877 11.5 6.477 14.045 12.621l31.114 75.116c-1.805.617-3.542 1.448-5.148 2.522-1.577 1.053-2.99 2.308-4.237 3.705l-36.268-36.268c-2.929-2.929-7.678-2.929-10.606 0-2.929 2.929-2.929 7.678 0 10.606l36.273 36.273c-1.429 1.263-2.711 2.7-3.785 4.306-1.053 1.576-1.879 3.276-2.496 5.043 0 0-74.458-30.897-74.585-30.949-6.189-2.564-10.888-7.708-12.89-14.113-1.929-6.172-1.059-12.781 2.387-18.132 3.521-5.469 9.333-9.011 15.944-9.718 6.853-.731 13.542 1.608 18.357 6.424 2.929 2.927 7.678 2.927 10.607-.002zm64.82-70.301c6.511-1.412 13.212.176 18.388 4.35 5.177 4.176 8.146 10.385 8.146 17.034v81.293c-1.904-.117-3.827-.008-5.722.369-1.86.37-3.646.988-5.332 1.801l-30.854-74.62c-2.563-6.189-2.249-13.148.865-19.093 2.999-5.729 8.288-9.787 14.509-11.134zm41.584 21.926c0-6.699 2.955-13.008 8.106-17.31 4.964-4.145 11.406-5.869 17.666-4.733 6.555 1.189 12.14 5.218 15.323 11.055 3.185 5.839 3.552 12.711 1.007 18.855l-31.108 75.103c-1.715-.837-3.534-1.472-5.43-1.85-1.859-.37-3.746-.482-5.615-.376zm138.774 69.821c-1.877 6.381-6.477 11.5-12.62 14.045l-75.101 31.108c-.621-1.807-1.458-3.544-2.533-5.153-1.053-1.575-2.306-2.987-3.701-4.233l57.128-57.055c4.737-4.736 11.287-7.109 17.972-6.508 6.44.58 12.213 3.912 15.838 9.144 3.793 5.475 4.893 12.274 3.017 18.652zm-117.211 121.154c-1.741 1.163-3.835 1.534-5.898 1.044-3.151-.748-6.419.608-8.117 3.362-1.112 1.805-2.856 3.023-4.909 3.432-2.055.409-4.132-.05-5.851-1.292-2.622-1.895-6.163-1.895-8.785 0-1.719 1.242-3.794 1.701-5.85 1.292-2.054-.409-3.797-1.627-4.91-3.433-1.386-2.249-3.823-3.565-6.384-3.565-.575 0-1.156.066-1.733.203-2.063.489-4.158.119-5.898-1.044-1.741-1.164-2.886-2.957-3.223-5.05-.514-3.194-3.019-5.699-6.213-6.213-2.093-.337-3.886-1.481-5.05-3.222-1.163-1.741-1.534-3.836-1.044-5.899.747-3.148-.608-6.419-3.362-8.117-1.805-1.112-3.023-2.856-3.432-4.909-.408-2.054.051-4.132 1.292-5.851 1.895-2.622 1.895-6.163 0-8.785-1.242-1.719-1.701-3.796-1.292-5.85s1.627-3.797 3.433-4.91c2.753-1.698 4.109-4.969 3.362-8.117-.49-2.063-.119-4.158 1.044-5.898 1.164-1.741 2.957-2.886 5.05-3.223 3.194-.514 5.698-3.019 6.213-6.212.337-2.093 1.481-3.887 3.223-5.05 1.74-1.164 3.835-1.535 5.898-1.044 3.146.745 6.419-.609 8.117-3.362 1.112-1.805 2.856-3.023 4.91-3.432 2.053-.41 4.13.05 5.85 1.292 2.622 1.895 6.163 1.895 8.785 0 1.718-1.243 3.793-1.702 5.85-1.292 2.054.409 3.797 1.627 4.91 3.433 1.698 2.753 4.969 4.109 8.117 3.362 2.063-.491 4.157-.119 5.898 1.044s2.886 2.957 3.223 5.05c.514 3.194 3.019 5.699 6.213 6.213 2.093.337 3.886 1.481 5.05 3.222 1.163 1.741 1.534 3.836 1.044 5.899-.747 3.147.608 6.419 3.362 8.117 1.805 1.112 3.023 2.856 3.432 4.91.409 2.053-.05 4.131-1.292 5.85-1.895 2.622-1.895 6.163 0 8.785 1.242 1.719 1.701 3.796 1.292 5.85s-1.627 3.797-3.432 4.91c-2.754 1.697-4.109 4.969-3.362 8.117.49 2.063.119 4.158-1.044 5.898-1.164 1.741-2.957 2.886-5.05 3.223-3.194.514-5.698 3.019-6.213 6.212-.338 2.093-1.483 3.887-3.224 5.05zm66.482-187.351c5.601 3.607 9.218 9.467 9.926 16.078.708 6.613-1.583 13.103-6.285 17.805l-57.48 57.48c-1.264-1.43-2.702-2.714-4.309-3.788-1.573-1.051-3.276-1.875-5.044-2.492l30.947-74.58c2.563-6.189 7.708-10.887 14.112-12.89 6.172-1.929 12.782-1.06 18.133 2.387zm-235.115 93.989 75.112 31.113c-.837 1.715-1.472 3.534-1.849 5.429-.369 1.858-.482 3.743-.376 5.611l-80.754-.051c-6.7 0-13.009-2.955-17.31-8.106-4.144-4.964-5.87-11.402-4.733-17.666 1.189-6.555 5.219-12.14 11.055-15.323 5.839-3.184 12.712-3.552 18.855-1.007zm-25.443 65.299c4.176-5.177 10.385-8.146 17.035-8.146h81.302c-.118 1.905-.008 3.83.369 5.726.37 1.857.986 3.641 1.798 5.325l-74.626 30.856c-6.19 2.564-13.149 2.248-19.093-.864-5.729-3-9.787-8.289-11.134-14.509-1.41-6.512.175-13.213 4.349-18.388zm18.517 61.919c1.877-6.381 6.477-11.5 12.621-14.045l75.114-31.113c.621 1.806 1.458 3.544 2.533 5.152 1.052 1.573 2.303 2.985 3.697 4.23l-57.137 57.065c-4.738 4.737-11.292 7.106-17.972 6.508-6.44-.58-12.213-3.913-15.838-9.145-3.794-5.476-4.894-12.274-3.018-18.652zm50.729 66.197c-5.601-3.606-9.219-9.467-9.926-16.077-.708-6.614 1.583-13.104 6.285-17.806l57.49-57.49c1.265 1.432 2.704 2.717 4.313 3.792 1.575 1.052 3.27 1.875 5.033 2.491l-30.95 74.586c-2.564 6.189-7.708 10.888-14.113 12.89-6.172 1.931-12.781 1.06-18.132-2.386zm159.116-9.937-31.109-75.104c1.808-.622 3.547-1.463 5.157-2.54 1.573-1.051 2.983-2.302 4.228-3.694l57.058 57.13c4.737 4.737 7.109 11.288 6.508 17.972-.58 6.44-3.913 12.213-9.145 15.838-5.475 3.793-12.275 4.895-18.652 3.018-6.381-1.877-11.5-6.477-14.045-12.62zm-11.124-91.951c1.433-1.266 2.719-2.705 3.795-4.316 1.051-1.573 1.876-3.269 2.493-5.032l74.575 30.945c6.189 2.563 10.888 7.708 12.89 14.113 1.929 6.172 1.059 12.781-2.387 18.132-3.607 5.601-9.467 9.219-16.078 9.926-6.613.709-13.103-1.583-17.805-6.285zm87.123 7.899-75.103-31.109c.84-1.717 1.476-3.539 1.854-5.438.369-1.856.482-3.74.377-5.606l80.739.051c6.699 0 13.008 2.955 17.31 8.106 4.144 4.964 5.87 11.403 4.733 17.666-1.189 6.555-5.218 12.14-11.055 15.323-5.84 3.185-12.712 3.552-18.855 1.007zm25.443-65.299c-4.176 5.177-10.385 8.146-17.035 8.146h-81.289c.118-1.907.009-3.834-.368-5.732-.37-1.857-.986-3.641-1.798-5.325l74.612-30.851c6.19-2.564 13.15-2.249 19.094.865 5.728 3 9.786 8.288 11.133 14.509 1.41 6.512-.175 13.213-4.349 18.388zm-21.142-164.468c9.965-.984 19.736 2.51 26.807 9.581 7.208 7.208 10.788 16.973 9.821 26.79-.948 9.625-5.987 17.942-14.23 23.451l-15.013 10.179c-5.957-5.79-13.773-9.423-22.273-10.188-2.88-.259-5.743-.179-8.545.208.429-3.007.502-6.087.17-9.187-.903-8.434-4.617-16.138-10.459-22.021l9.437-14.334c5.545-8.218 14.383-13.504 24.285-14.479zm-79.845-41.306c8.832-4.721 19.194-5.233 28.433-1.407 9.418 3.901 16.463 11.553 19.326 20.992 2.807 9.254 1.335 18.867-4.173 27.111l-9.974 15.148c-7.72-3.07-16.333-3.436-24.479-.889-2.76.863-5.375 2.032-7.815 3.461-.755-2.942-1.866-5.816-3.359-8.553-4.061-7.446-10.441-13.141-18.088-16.341l3.234-16.854c1.977-9.712 8.119-17.977 16.895-22.668zm-89.574-7.607c6.353-7.741 15.73-12.181 25.729-12.181 10.195 0 19.631 4.374 25.889 11.999 6.135 7.476 8.454 16.92 6.52 26.645l-3.417 17.809c-8.307.117-16.405 3.075-22.957 8.546-2.219 1.853-4.188 3.934-5.896 6.189-1.823-2.429-3.95-4.659-6.376-6.616-6.601-5.325-14.675-8.145-22.964-8.176l-3.462-16.806c-1.891-9.73.621-19.717 6.934-27.409zm-85.667 27.251c2.907-9.583 9.872-17.274 19.109-21.1 9.418-3.901 19.81-3.472 28.51 1.178 8.529 4.559 14.285 12.397 16.22 22.121l3.658 17.758c-7.631 3.287-13.981 9.12-17.941 16.682-1.341 2.561-2.364 5.237-3.078 7.974-2.614-1.547-5.432-2.793-8.423-3.673-8.136-2.393-16.674-1.909-24.344 1.235l-9.628-14.199c-5.471-8.266-6.972-18.454-4.083-27.976zm-59.138 31.153c7.209-7.209 16.977-10.787 26.79-9.821 9.625.948 17.942 5.987 23.451 14.23l10.174 15.005c-5.792 5.957-9.427 13.775-10.192 22.277-.265 2.942-.183 5.87.227 8.73-3.054-.428-6.188-.484-9.339-.147-8.398.899-16.046 4.541-21.87 10.261l-14.343-9.443c-8.217-5.544-13.503-14.382-14.478-24.284-.982-9.967 2.51-19.738 9.58-26.808zm-52.294 78.22c3.901-9.418 11.553-16.463 20.992-19.326 9.256-2.807 18.869-1.335 27.111 4.173l15.139 9.968c-3.071 7.72-3.437 16.334-.89 24.48.863 2.76 2.032 5.375 3.462 7.816-2.942.755-5.816 1.866-8.553 3.358-7.446 4.062-13.142 10.442-16.342 18.09l-16.843-3.232c-9.712-1.977-17.978-8.119-22.669-16.895-4.72-8.832-5.233-19.195-1.407-28.432zm-18.38 92.277c0-10.195 4.374-19.631 11.999-25.889 7.476-6.135 16.921-8.454 26.645-6.52l17.8 3.415c.118 8.307 3.075 16.404 8.545 22.955 1.853 2.22 3.935 4.189 6.19 5.896-2.429 1.823-4.659 3.95-6.616 6.376-5.326 6.603-8.147 14.678-8.176 22.97l-16.796 3.46c-9.733 1.891-19.717-.622-27.409-6.934-7.742-6.353-12.182-15.73-12.182-25.729zm39.432 111.397c-9.583-2.907-17.274-9.872-21.1-19.109-3.901-9.419-3.472-19.81 1.178-28.51 4.559-8.529 12.397-14.285 22.121-16.22l17.751-3.656c3.288 7.628 9.119 13.976 16.679 17.936 2.562 1.342 5.24 2.359 7.977 3.073-1.548 2.615-2.795 5.435-3.676 8.428-2.394 8.139-1.909 16.68 1.238 24.353l-14.193 9.624c-8.265 5.468-18.454 6.969-27.975 4.081zm57.96 68.717c-9.966.982-19.737-2.511-26.807-9.581-7.208-7.208-10.788-16.973-9.821-26.79.948-9.625 5.987-17.942 14.23-23.451l15.002-10.172c5.956 5.788 13.772 9.421 22.27 10.185 1.137.103 2.27.153 3.398.153 1.732 0 3.451-.126 5.147-.361-.429 3.007-.502 6.088-.17 9.188.903 8.437 4.62 16.143 10.465 22.027l-9.43 14.322c-5.544 8.219-14.382 13.505-24.284 14.48zm79.845 41.306c-8.832 4.721-19.195 5.233-28.433 1.407-9.418-3.901-16.463-11.553-19.326-20.992-2.807-9.254-1.335-18.867 4.173-27.111l9.971-15.145c4.279 1.7 8.827 2.585 13.424 2.585 3.694 0 7.415-.559 11.043-1.693 2.76-.863 5.375-2.032 7.816-3.462.755 2.942 1.866 5.816 3.359 8.553 4.063 7.45 10.448 13.147 18.1 16.346l-3.232 16.843c-1.977 9.713-8.119 17.979-16.895 22.669zm89.575 7.607c-6.353 7.741-15.731 12.181-25.729 12.181-10.195 0-19.631-4.374-25.889-11.999-6.135-7.476-8.454-16.92-6.52-26.645l3.415-17.798c8.303-.12 16.397-3.084 22.945-8.551 2.22-1.853 4.189-3.935 5.896-6.19 1.823 2.429 3.95 4.659 6.376 6.616 6.606 5.328 14.684 8.152 22.979 8.179l3.46 16.797c1.891 9.731-.621 19.718-6.933 27.41zm85.667-27.251c-2.907 9.583-9.872 17.274-19.109 21.1-9.418 3.901-19.81 3.472-28.51-1.178-8.529-4.559-14.285-12.397-16.22-22.121l-3.658-17.759c7.625-3.288 13.97-9.118 17.927-16.675 1.341-2.562 2.364-5.238 3.079-7.975 2.614 1.547 5.432 2.793 8.423 3.673 3.443 1.013 6.957 1.511 10.448 1.511 4.763 0 9.477-.941 13.905-2.758l9.632 14.206c5.47 8.266 6.971 18.454 4.083 27.976zm59.137-31.153c-7.209 7.209-16.977 10.79-26.79 9.821-9.625-.948-17.942-5.987-23.451-14.23l-10.177-15.01c5.786-5.956 9.417-13.77 10.181-22.266.259-2.876.18-5.737-.206-8.535 1.715.244 3.453.373 5.206.373 1.32 0 2.648-.071 3.979-.213 8.437-.903 16.144-4.621 22.028-10.467l14.331 9.435c8.217 5.544 13.503 14.382 14.478 24.284.983 9.967-2.509 19.738-9.579 26.808zm52.294-78.22c-3.901 9.418-11.553 16.463-20.992 19.326-9.255 2.808-18.868 1.335-27.111-4.173l-15.149-9.974c3.067-7.717 3.431-16.326.886-24.469-.861-2.756-2.028-5.367-3.455-7.805 2.941-.755 5.811-1.878 8.547-3.37 7.449-4.063 13.146-10.446 16.345-18.097l16.854 3.234c9.712 1.977 17.978 8.119 22.669 16.895 4.719 8.833 5.232 19.196 1.406 28.433zm6.382-66.388c-7.475 6.135-16.918 8.455-26.645 6.52l-17.814-3.418c-.12-8.303-3.077-16.397-8.545-22.947-1.853-2.219-3.934-4.188-6.189-5.896 2.429-1.823 4.659-3.95 6.616-6.376 5.327-6.604 8.147-14.68 8.175-22.973l16.81-3.463c9.73-1.892 19.717.622 27.409 6.934 7.741 6.353 12.181 15.731 12.181 25.729 0 10.196-4.373 19.632-11.998 25.89z"/></g></svg>