<?xml version="1.0" encoding="utf-8"?>
<!-- Generator: Adobe Illustrator 24.0.2, SVG Export Plug-In . SVG Version: 6.00 Build 0)  -->
<svg version="1.1" xmlns="http://www.w3.org/2000/svg" xmlns:xlink="http://www.w3.org/1999/xlink" x="0px" y="0px"
	 viewBox="0 0 1920 1080" style="enable-background:new 0 0 1920 1080;" xml:space="preserve">
<style type="text/css">
	.st0{display:none;}
	.st1{display:inline;}
	.st2{fill:none;stroke:#000000;stroke-miterlimit:10;}
</style>
<g id="Слой_3">
	<path class="st2" d="M780.5,935.5C833,943,885,951,937,953c1.81,0.07,12.24-0.72,26,1c4.18,0.52,7.52,1.12,9.5,1.5
		c7.66,1.36,16.8,2.41,27.13,2.5c11.5,0.1,21.59-1.03,29.88-2.5c0.33-0.28,0.67-0.61,1-1c1.22-1.43,1.75-2.95,2-4
		c-0.31-3.64-0.15-9.02,2.5-14.5c5.08-10.49,17.17-16.92,31-17c14-7,7-25,0-35c-7-12,6-18,15-23c6-15,12.5-29,19.63-42.75
		c6.88-13.28,19.35-22.56,23.38-41.25c1.21-5.63,1.47-10.4,1.5-13.5c0.08-16.62-0.21-33.98-1-52c-0.69-15.9-1.72-31.25-3-46
		c0.2-1.96,0.25-5.28-1.13-9c-0.69-1.87-1.58-3.37-2.38-4.5c-6-7-15-7-22-12c-2-2-5-4-6-6c-11-31-19-62-23-95
		c0.09-3.04-0.01-6.58-0.5-10.5c-0.47-3.79-1.21-7.15-2-10c-2.67-4-5.33-8-8-12c-0.29-0.38,0.1,0.05-5.99-7.06
		c-1.25-1.46-2.83-3.33-5.01-5.94c-0.06-0.07-1.98-2.38-5-6c-0.67-1.67-1.33-3.33-2-5c-1.61,4.63-4.76,11.86-11,19
		c-1.43,1.64-5.91,6.33-13,11c-2.59,1.71-10.64,6.7-33.5,10.5c-4.37,0.73-13.57,1.58-32,3c-13,1-26-1-39-1c-3,0-6-2-9-3
		c-1,0-2,1-2,1c1,3,4,4,5,7c6,15,8,31,16,46c13,27,35,48,38,79c1,4,5,5,8,5c9,1,19,2,23,11c2,5,3,9,5,14c10,20,19,40,27,61
		c1,3,3,5,4,7c0,2,0,5,1,7c7,16,16,31,26,46c10,16,6,34,9,52c1,2,1,6,4,6c24-10,22-40,21-61c7-6,17-6,23-14c10-13,13-28,13-43
		c-1-22-10-44-28-59c-2-1-3-3-4-5c-3-8,0-18-9-23c-3-0.75-5.44-2.06-7.31-3.94c-0.88-0.88-1.42-1.67-1.69-2.06
		c-6.17-9.13-9.83-20.06-17.5-25.5c-0.81-0.57-2.14-1.43-4-3c-0.43-0.37-3.34-2.85-6.14-6.42c-4.35-5.53-6.76-11.48-7.86-14.58
		c-3.04,1.14-7.12,2.58-12,4c-2.07,0.6-9.76,2.8-23,5c-7.63,1.27-14.8,2.46-24,3c-18.52,1.09-33.99-1.12-34-1
		c0,0.04,1.94,0.2,4.32,0.42c11.14,1.04,42.48,2.86,78.18-7.92c4.31-1.3,7.9-2.55,10.5-3.5c-3.36-11.65-7.79-34.05,1.5-57.5
		c1.76-4.46,3.83-8.45,6-12c9.16-8.1,11.47-15.21,12-20c1.27-11.58-6.87-18.93-10.5-41.5c-0.56-3.46-0.85-6.29-1-8
		c-0.18,0.74-0.44,1.81-1,3c-0.47,1-0.71,1.5-1,2c-7.98,13.92-14,21-14,21c-9.93,11.68-21.04,19.13-26.5,22.5c0,0,0,0,0,0
		c-16.04,7.18-46.93,2.42-99.5-26.5c-24.9-13.7-43.61-28.27-56-39c-2.4-2.07-5.44-5.11-5.94-9.31c-0.09-0.72-0.08-1.32-0.06-1.69
		c0.82-4.93,1-7.02,1-8c0-0.67,0-2.67,0-2c-0.5-0.17-1-0.33-1.5-0.5c-6.39-2.37-14.87-6.55-23-14c-3.58-3.28-13.79-12.88-18.5-28.5
		c-1.23-4.06-3.25-11.05-2-20c0.56-4.01,1.62-7.25,2.5-9.5c7.91-3.12,15.26-0.83,21,3c3,2,6,5,4,8c-7,7-11,15-5,24c3,4,8,3,10-1
		s2-9,3-14c0.06-0.93,0.23-1.43,0.5-1.5c0.78-0.2,2.45,3.14,5,10c1.74,3.4,3.91,8.51,5,15c1.01,6,0.69,11.23,0.54,13.03
		c0,0.04-0.02,0.22-0.04,0.47c-0.3,3.43-0.39,5.1-0.5,6.5c-0.39,4.85-0.92,5.11-1,9c-0.03,1.58,0.06,1.59,0,3
		c-0.13,2.96-0.6,5.38-1,7c0,0,0,0,0,0c1-6.07,1-8,1-8s0-0.01,0-2c0.91-8.12,1-9,1-9c0.47-4.71,0.72-10.19,0.63-13.75
		c-0.13-4.71-1.11-12.08-5.63-21.25c-0.22-0.26-1.17-1.42-1-3c0.07-0.66,0.31-1.17,0.5-1.5c2.34-2.04,4.75-4.5,7.38-7.13
		C846.75,368.5,849,366,851,363c11-12,28-9,43-11c8-2,11-10,18-14c1.65-0.94,2.9-1.3,3.5-1.5c2.51-0.84,12-1.07,12-1
		c0,0.02-1.2-0.11-4,0c-3.89,0.15-5.84,0.23-8,1c-1.2,0.43-3.03,1.26-5,3c-0.46,0.68-1.41,2.28-1.19,4.28
		c0.4,3.63,4.37,5.36,5.19,5.72c5.6,2.45,11.47-1.62,12-2c0.65-0.82,1.53-2.17,2-4c0.99-3.85-0.51-7.06-1-8
		c1.6,0.27,5.36,1.14,8.88,4.25c3.27,2.89,4.61,6.21,5.13,7.75c-2.26,1.33-4.93,2.72-8,4c-3.27,1.36-6.32,2.32-9,3
		c-1.36,0.43-3.05,0.83-5,1c-3.81,0.33-6.96-0.36-9-1h0c0,0-0.12-0.03-8-2c-0.31-0.23-0.67-0.56-1-1c-0.87-1.17-0.99-2.43-1-3
		c0.01,0.57,0.13,1.83,1,3c0.33,0.44,0.69,0.77,1,1c0,0,0,0,0,0l0,0c-0.01,0,8,2,8,2c2.05,0.65,5.2,1.36,9,1
		c1.59-0.15,2.72-0.43,5-1c1.82-0.45,5.12-1.33,9-3c2.49-1.07,4.52-2.15,6-3c0.31-0.18,1-0.58,2-1c1.1-0.46,1.96-0.7,3.05-0.98
		c1.77-0.46,2.73-0.51,3.95-1.02c6.53-2.71,8.67-13.62,8.5-20.5c-0.06-2.48-0.34-13.89-8.5-19.5c-2.68-1.84-5.76-2.75-14-3
		c-15.82-0.48-27,2-27,2c-23.54,5.23-47.56,16.43-55,20c0.4,2.46,0.92,6.38,1.11,11.23c0.6,15.39-2.7,28.67-3.4,28.55
		c-0.59-0.11,0.2-1.18,0.29-1.77c0.26-1.75,2.55-10.69,3-19c0.18-3.3,0.55-10.87-1-19c-2.78-14.61-9.28-17.98-13.45-29.91
		c-2.39-6.83-4.25-17.12-1.05-31.59c5.94,7.96,12.97,15.9,23.62,16.33c8.67,0.35,19.16-1.84,23.38-10.33
		c-7.97-3.4-14.89-10.66-15.32-19.66c-0.44-9.41,6.56-17.03,14.32-21.34c0.48,1.51,1.25,3.44,2.5,5.5c1.34,2.2,2.81,3.85,4,5
		c16.29,13.05,27,14.02,34,12c12.34-3.56,13.5-16.47,31.5-23.5c5.25-2.05,16.9-8.1,24-1c5,5,6,12,11,18c4,6,13,8,18,14
		c5,7,5,15,10,21s13,6,20,7c8.04,2.92,12.98,6.68,12.5,9.5c-0.11,0.63-0.64,2.17-4.5,3.5c-17,3-34-1-51,4c-7.99,2.35-9,13-9,13
		c-4.45,11.69-0.73,22.35,0.5,25.5c0.95,0.11,2.38,0.36,4,1c2.02,0.79,3.26,1.76,5,3c0,0,2.38,1.7,6,4c4.2,2.67,9.97,3.38,14.5,2.5
		c5.82-1.13,11.39-6.29,13.79-11.54c2.6-5.7-11.57-8.83-12.29-8.96c2.31,2.96,2.69,6.91,1,10c-2.15,3.94-7.08,5.39-11,4
		c-4.62-1.64-6.79-6.86-6-10c0.08-0.31,0.31-1.18,1-2c1.23-1.47,3.09-1.8,5-2c2.3-0.25,5.69-0.42,10,0
		c-4.34,0.09-11.51-1.14-17.56,3.16c-4.16,2.96-10.57,8.5-13.44,6.84C992,359,999,375,1008,391c2,4,2,9,0,13
		c-2.39,2.24-4.22,2.62-5.5,2.5c-1.65-0.15-2.26-1.13-4-1c-1.65,0.12-2.36,1.08-4,2c-1.34,0.75-3.41,1.53-6.5,1.5
		c-5.07,0.69-8.37-0.33-10.5-1.5c-2.38-1.3-3.49-2.87-6-3c-2.39-0.13-3.39,1.18-6,2c-1.98,0.62-5.06,1.01-9.5-0.5
		c-0.44-3.42-0.36-8.53,2.25-13.38c3.91-7.25,10.74-9.64,12.25-10.13c-2.17,0.83-4.33,1.67-6.5,2.5c-1.94,0.45-4.56,1.2-7.5,2.5
		c-11.47,5.08-25.75,17.64-24.5,31.5c0.58,6.43,3.61,14.4,9,16c1.76,0.52,2.67,0.06,8.5-1.5c10.47-2.8,15.71-4.2,20-4
		c6.57,0.3,7.04,2.63,13,2c4.88-0.51,6.15-2.24,11-3c3.25-0.51,7.77-0.53,13.5,1.5c0.32,0.07,2.22,0.7,3.5,2.63
		c0.75,1.13,1,2.38,0.5,3.38c-2.22,2.42-5.98,5.91-11.5,8.5c-6.83,3.21-12.75,3.36-18.5,3.5c-10.98,0.27-19.46-2.33-22.5-3.5
		c-1.82-0.7-6.35-2.68-9-4c-0.46-0.23-0.96-0.49-2-1c-2.8-1.38-3.24-1.51-4-2c-0.84-0.54-1.94-1.44-3-3
		c12.1,2.62,28.78,4.88,48.5,3.5c8.69-0.61,15.07-1.24,21.43-2.86c7.65-1.94,13.78-4.54,18.07-6.64c5.24-5.07,13.98-14.56,20.5-28.5
		c21.64-46.28,2.2-105.72,2.5-104.5c0.52,2.09,1.02,4.19,1.75,6.22c-0.45-2.11-1.11-4.16-1.75-6.22c-0.09-0.3,7.75,26.12,9.5,55.5
		c0.22,3.73,1.12,20.5-0.5,33.5c-0.21,1.67-0.62,4.6-1,9c-0.58,6.72-0.4,9.11-1,16c-0.26,3.01-0.5,5.75-1,9
		c-0.97,6.27-2.34,10.57-4,16c-2.08,6.78-6.13,20.15-9,30c-1.56,5.36-3.1,10.7-6,18c-1.04,2.62-1.88,4.74-3,7c0,0-4.99,10.12-14,18
		c-14.78,12.93-41.08,12.57-44.5,12.5c-18.35-0.38-34.55-5.59-63-22c-26-15-50-28-72-48c-6-6-10-14-15-21c-3-3-6-6-11-3
		c-6,3-8,8-9,14c-1,14,9,25,19,34c16,11,34,14,50,26c2,3,5,5,6,9c7,23,12,47,22,69c2,6,4,13,8,19c8,11,14,21,22,31
		c1.4,2.2,2.86,4.74,4.25,7.63c1.35,2.81,2.41,5.46,3.25,7.88c-5,4.67-10,9.33-15,14c-1.12-1.46-3.68-4.38-8-6
		c-7.31-2.75-13.83,0.41-15,1c-0.9,0.73-1.96,1.71-3,3c-0.86,1.07-1.51,2.11-2,3c-0.65,1.06-1.52,2.76-2,5c-0.59,2.76-0.29,4.97,0,7
		c0.35,2.43,0.67,4.69,2,7c2.05,3.56,5.28,5.15,7,6c1.84,0.91,8.78,4.33,16,1c0.87-0.4,5.57-2.66,8-8c2.72-5.97,1.49-13.31-3-19
		c2.5-2.26,5.02-4.57,7.56-6.94c2.54-2.37,5.02-4.72,7.44-7.06c16.98,37.83,28.51,63.73,33.5,75.5c6.87,16.2,10.08,26.04,13.5,29.5
		c0.46,0.47,2.51,2.43,2,4c-0.24,0.74-0.91,1.01-3,2c-4.22,2-3.8,2.27-6,3c-1.14,0.38-2.84,0.83-5,1c-5.07-6.9-13.49-9.83-20.5-7.5
		c-9.6,3.19-14.89,15.43-10,25c4.37,8.56,15.64,12.56,24.5,7.5c8.61-4.92,11.48-16.43,6-25c1.67-0.33,3.33-0.67,5-1
		c1.83-0.74,3.87-1.71,6-3c1.09-0.66,2.09-1.33,3-2c4.11,9.19,8.11,18.82,11.93,28.88c13.43,35.41,21.84,68.95,27.07,99.12
		c0,0-0.66-0.7-1-1c-0.62-0.55-2-1-2-1c-1.16-0.41-2.88-0.89-5-1c-5.45-0.29-11,2-11,2c0.8,5.84-1.48,11.59-6,15
		c-6.13,4.62-13.27,2.57-15,2c-5.89-1.95-10.14-6.92-11.5-12.5c-0.43-1.77-1.07-5.67,0.62-10.01c0.14-0.37,3.76-9.19,12.88-10.49
		c6.87-0.98,11.86,3.03,13,4c5.37,4.59,5.92,10.83,6,12c1.56-0.78,5.2-2.35,10-2c4.38,0.31,7.54,2.06,9,3c0.25,1.2,0.61,2.93,1,5
		c0.33,1.33,0.78,3.41,1,6c0.24,2.75,0.07,4.29,0,9c-0.04,2.33,0,4.67,0,7c0,0.89,0,10,0,10c0,13.97-0.01,13.78,0,14
		c0.12,1.81,0.66,8.96,1,15c0.06,1.09,0.16,3.45-1,6c-0.6,1.32-1.37,2.31-2,3c0.72,0.36,1.74,0.77,3,1c1.67,0.3,3.08,0.17,4,0
		c29.96,0.58,54.85-2.26,73.12-5.34c11.28-1.9,33.12-1.69,66.64-22.23c2.92-1.79,10.09-3.8,13.63-10.07
		c1.26-2.22,2.17-5.04,2.6-6.36c1.78-5.46,2.17-9.83,2.29-11.1c0.68-7.04,4.03-23,5.81-36.21c1.51-11.21,1.9-20.68,1.9-24.69
		c0,0,0-4.48,0-8c0-0.69,0-7,0-7c0-4.98,0-4.94,0-5c0.02-3.43-0.31-4.31-1-11c-0.59-5.67-0.42-5.66-1-11c-0.23-1.8-0.58-4.59-1-8
		c-3.68-29.83-3.36-31.87-5-39c-2.86-12.44-7.48-22.06-9.26-25.57c-0.09-0.17-0.25-0.78-0.74-1.43c-0.37-0.49-0.75-0.82-1-1
		c0.38,0.38,0.77,0.74,1,1c0.68,0.76,0.88,1.61,1,2c0.97,3.27,6.58,12.01,9,25c1.2,6.46,0.82,9.7,2,14c0.24,0.89,0.89,3.05,1,6
		c0.06,1.57-0.1,1.55,0,3c0.19,2.67,0.79,3.52,1,6c0.04,0.51,0.04,0.82,0.06,1.3c0.06,2.05,0.21,6.82,0.94,11.7
		c0.27,1.83,0.42,2.25,1,6c0,0,0.23,1.48,0.44,2.92c0.47,3.26,1.44,17.91,2.21,37.95v0c-0.88,22.28-4.58,41.54-6.65,52.13
		c-2.11,10.77-4.32,19.69-6,26c1.59-1.61,2.56-1.78,3-2c0,0,0.15-0.08,2-1c1.37-0.6,3.27-1.48,5.5-2.63c3.71-1.91,7.04-3.9,10-5.88
		c16-12,32-23,45-37c13-22,3-47-8-68c-2-4-2-9-3-13c-1-16-1-32-6-48c-5-12-15-20-22-31c-5-9-10-17-15-25c-11-21-18-41-32-61
		c-3-5-8-7-13-9c-10-4-22-4-31-12c-4-4-8-7-10-12c-6.75-16.86-9.28-24.72-18-53c-5.9-19.14-9.64-26.17-15.5-32.5
		c-5.04-5.45-10.29-8.91-14-11c-2.63-1.14-5.79-2.78-9.13-5.13c-3.58-2.52-6.34-5.15-8.38-7.38c-4.75-12.5-4.32-21.27-3-27
		c0.3-1.3,2.03-7.37,5.5-19.5c1.95-6.82,1.87-6.47,2-7c0.75-3.08,1.5-6.85,3-24c0.39-4.44,0.55-6.61,1-11c0.39-3.84,0.76-6.98,1-9
		c3.15,0.08,16.46,0.07,25.5-9.5c10.86-11.5,11.36-32.34-1-49c-1-3-2-7,0-10c3-3,7-4,10-7c2-4,4-8,5-12c2-13-7-22-12-33
		c-1-2,0-4,1-6c6-6,9-13,8-22c-3-18-16-33-34-37c-1,0-2-1-2-2c1-14-1-30-14-38c-2-1-5-2-7-3c-4-2-8,0-11-3c-4-6-6-13-11-18
		c-11-10-29-8-39,4c-0.15,0.15-0.26,0.29-0.33,0.4c-0.15,0.22-0.21,0.33-0.29,0.44c-0.03,0.05-0.43,0.64-0.88,0.66
		c-0.39,0.02-0.81-0.4-1-1c0.03-1.55,0.05-3.6,0-6c-0.02-0.8-0.08-3.5-0.25-6c-0.19-2.77-0.64-6.84-1.75-12
		c-0.52-1.52-2.07-5.31-6-8c0,0-4.61-3.15-10.5-2.5c-0.38,0.04-1.46,0.16-1.5,0.5c-0.02,0.14,0.15,0.31,0.5,0.5
		c1.19,0.85,4.87,3.66,6.26,8.82c1.12,4.15,0.47,8.81-2.26,13.18c-4,6-12,6-18,4c-25.23-8.41-33.73-17.02-48-13
		c-8.69,2.45-7.94,8.48-18.5,10.5c-8.39,1.6-12.39-1.53-21,2c-6.86,2.81-9.36,6.87-10,8c-1.32,2.31-1.8,4.52-2,6
		c-0.47,0.53-1.28,1.3-2.5,1.88c-0.76,0.36-1.46,0.53-2,0.63c-2.33-0.2-5.64-0.25-9.5,0.5c-7.3,1.41-12.18,4.83-14.5,6.5
		c-10.6,7.6-14.68,18.78-16,23c-2,4-6,7-8,10c-5,6-4,14-9,20c-6,7-15,12-16,21s5,17,6,25c0,3-1,7-4,9c-6,4-9,10-10,16
		c-1,8,6,13,7,20c1,9-6,16-7,25c-1,13,9,21,15,31c-1.01,4.44-2.1,12.05,0,21c3.74,15.95,14.96,24.9,18.5,27.5
		c1.4,0.59,6.24,2.83,7.5,7.5c0.78,2.91-0.2,5.36-1.5,8.5c-3.28,7.9-7.48,9.17-10.5,16.5c-1.05,2.54-2,4.59-2,8c0,22-4,43-8,66
		c-0.54,0.66-2.91,3.68-3.51,6.7c-0.14,0.72-0.32,1.68,0.01,2.8c0.23,0.78,0.54,1.07,1,2c0.59,1.18,0.73,2.01,1,3
		c0.53,1.95,1.23,3.4,2,5c1.34,2.78,2.89,4.66,4,6c1.07,1.28,2.65,2.93,6,6c3.68,3.38,4.77,4.77,8,8c37.55,37.53,69,55,69,55l0,0
		c17.58,10.35,30.38,16.48,41,21c17.77,7.57,32.99,12.02,33,12c0.01-0.02-14.17-3.92-33-12c-21.71-9.31-39-19.63-49-26
		c-0.3-0.19-0.55-0.35-0.94-0.6c-5.3-3.41-22.69-14.89-42.06-32.4c0,0,0,0,0,0l0,0c-4.55-3.21-12-11-12-11
		c-8.24-8.61-11.69-12.28-17-17l0,0c-3.22-2.63-5.01-5.25-6-7c-1.6-2.83-2.81-6.42-3-7c-0.44-1.3-0.49-1.71-1-3
		c-0.56-1.41-0.9-1.94-1-3c-0.11-1.16,0.17-1.95,0-2c-0.23-0.07-0.64,1.43-2,3c-0.39,0.45-0.75,0.78-1,1c-0.67,0.33-1.33,0.67-2,1
		s-1.33,0.67-2,1c-1.96,0.17-4.92,0.66-8.12,2.17c-5.88,2.79-9.03,7.37-10.38,9.33c-9,13-16,24-27,34c-3,2-7,4-10,6
		c-16,12-25,28-41,41c-12,10-24,17-36,27c-8,8-17,15-21,26c-5,16-12,30-18,46s-10,33-13,50c-1.71,9.67-2.15,17.36-3,33
		c-0.98,17.98-2.03,42.55-2.5,72.5c0,3.33,0,6.67,0,10c0,1.33,0,2.67,0,4c0.33,0.67,0.67,1.33,1,2s0.67,1.33,1,2
		c0.38,0.7,1.03,1.8,2,3c6.54,8.15,17.37,8.42,36.5,11.5c19.49,3.14,17.37,1.79,60,16c3,1,6,1,9,2c21,9,41,16,63,20c9,2,18,2,27-2
		c6-3,11-8,9-15c-9-33-7-66-4-100c3.83-43.45-21.36-77.54-29.5-104.5"/>
</g>
</svg>
