<svg id="_x33_0" enable-background="new 0 0 64 64" height="512" viewBox="0 0 64 64" width="512" xmlns="http://www.w3.org/2000/svg"><g><path d="m10.455 24.333.835-2.796c.401-1.344 1.35-2.474 2.603-3.1l.184-.092c1.24-.62 1.983-1.858 1.942-3.231-.017-.602-.158-1.154-.407-1.653l-.506-1.012 1.789-.895.505 1.011c.379.757.592 1.601.616 2.438.048 1.586-.578 3.067-1.657 4.129.418 1.643.641 3.331.641 5.03v1.72l9.713-4.856c-.306-.373-.573-.784-.773-1.24l-2.517-5.755c-1.868-4.271-6.087-7.031-10.749-7.031h-.184c-3.027 0-5.49 2.448-5.49 5.458 0 .294.029.589.086.877l.535 2.672c.263 1.312.284 2.646.064 3.966l-.674 4.041c-.007.045-.011.092-.011.139 0 .467.38.847.847.847h1.711c.417 0 .777-.268.897-.667z"/><path d="m3.197 9.217c-.127.127-.197.296-.197.476 0 .31.209.579.51.653l1.692.42c.113-.482.272-.945.474-1.386l-.756-1.886z"/><path d="m9.458 5.645-2.602-1.565c-.353-.212-.856.071-.856.486v.132c0 .073.014.144.041.212l.985 2.463c.683-.727 1.507-1.318 2.432-1.728z"/><path d="m30.837 35.805c.108-.595.163-1.202.163-1.805 0-2.757-2.243-5-5-5s-5 2.243-5 5c0 .603.055 1.21.163 1.805l1.672 9.195h6.331zm-4.837.195c-1.105 0-2-.895-2-2s.895-2 2-2 2 .895 2 2-.895 2-2 2z"/><path d="m11 55c-1.103 0-2 .897-2 2s.897 2 2 2h10.101c-.066-.323-.101-.658-.101-1 0-1.13.391-2.162 1.026-3z"/><path d="m17 31.679c0 2.168.888 4.172 2.4 5.612l-.205-1.129c-.13-.713-.195-1.44-.195-2.162 0-3.86 3.14-7 7-7s7 3.14 7 7c0 .722-.065 1.449-.195 2.162l-.516 2.838h2.711v-16.265l-3.789.252c-.986.066-1.937-.157-2.779-.586l-11.432 5.717z"/><path d="m43.195 36.162c-.13-.713-.195-1.44-.195-2.162 0-1.181.297-2.292.815-3.269l-3.344-8.36-3.471.231v16.398h6.711z"/><path d="m22.446 6.406c-.776-.596-1.622-1.108-2.542-1.502l-1.789-.767c-.739-.316-1.641-.047-2.085.62l-.38.569c2.059.457 3.967 1.386 5.591 2.684z"/><path d="m50 27c1.035 0 2.014.232 2.899.636-.562-3.333-3.602-5.844-7.091-5.621l-3.238.216 2.663 6.658c1.251-1.168 2.924-1.889 4.767-1.889z"/><path d="m23 47h6.001v2h-6.001z"/><path d="m26.895 16.979c.066-.49.105-.984.105-1.479 0-1.523-.304-3.005-.904-4.405-.533-1.244-1.274-2.361-2.168-3.333l-1.211 1.615c1.038 1.114 1.906 2.406 2.538 3.851z"/><path d="m12.49 5h.184c.109 0 .217.009.326.012v-1.335c0-.46-.503-.799-.927-.629l-1.833.733 2.044 1.229c.069-.002.137-.01.206-.01z"/><path d="m47 47h6.001v2h-6.001z"/><path d="m55 34c0-2.757-2.243-5-5-5s-5 2.243-5 5c0 .603.055 1.21.163 1.805l1.672 9.195h6.331l1.672-9.195c.107-.595.162-1.202.162-1.805zm-5 2c-1.105 0-2-.895-2-2s.895-2 2-2 2 .895 2 2-.895 2-2 2z"/><path d="m59 55h-5.026c.635.838 1.026 1.87 1.026 3 0 .342-.035.677-.101 1h4.101c1.103 0 2-.897 2-2s-.897-2-2-2z"/><path d="m55.25 20c-1.236 0-2.461.408-3.45 1.15l-.559.419c.561.391 1.07.848 1.525 1.357l.235-.176c.645-.484 1.443-.75 2.249-.75 2.068 0 3.75 1.682 3.75 3.75v.25h-2v-.25c0-.965-.785-1.75-1.75-1.75-.376 0-.749.124-1.049.35l-.273.204c.683 1.245 1.072 2.672 1.072 4.188v.368c1.235 1.263 2 2.988 2 4.89 0 .722-.065 1.449-.195 2.162l-1.055 5.803 4.418 2.945c.334.221.832-.044.832-.445v-18.715c0-3.17-2.58-5.75-5.75-5.75z"/><path d="m25 51h2v2h-2z"/><path d="m49 51h2v2h-2z"/><circle cx="26" cy="58" r="3"/><circle cx="50" cy="58" r="3"/><path d="m29.974 55c.635.838 1.026 1.87 1.026 3 0 .342-.035.677-.101 1h14.202c-.066-.323-.101-.658-.101-1 0-1.13.391-2.162 1.026-3z"/></g></svg>