<?xml version="1.0" encoding="iso-8859-1"?>
<!-- Generator: Adobe Illustrator 16.0.0, SVG Export Plug-In . SVG Version: 6.00 Build 0)  -->
<!DOCTYPE svg PUBLIC "-//W3C//DTD SVG 1.1//EN" "http://www.w3.org/Graphics/SVG/1.1/DTD/svg11.dtd">
<svg version="1.1" id="Capa_1" xmlns="http://www.w3.org/2000/svg" xmlns:xlink="http://www.w3.org/1999/xlink" x="0px" y="0px"
	 width="461.101px" height="461.101px" viewBox="0 0 461.101 461.101" style="enable-background:new 0 0 461.101 461.101;"
	 xml:space="preserve">
<g>
	<path d="M400.091,410.17l-95.543-149.488c-7.431-11.617-20.909-17.035-33.694-14.764l-22.053-34.504
		c46.762-37.412,58.784-105.057,25.821-156.636C239.351-0.408,165.757-16.607,110.575,18.666
		C55.39,53.938,39.19,127.52,74.462,182.708c33.149,51.863,100.133,69.267,153.878,41.908l21.812,34.116
		c-7.999,10.72-9.017,25.67-1.383,37.604L344.31,445.82c9.842,15.403,30.312,19.912,45.716,10.065
		C405.424,446.039,409.934,425.574,400.091,410.17z"/>
</g>
<g>
</g>
<g>
</g>
<g>
</g>
<g>
</g>
<g>
</g>
<g>
</g>
<g>
</g>
<g>
</g>
<g>
</g>
<g>
</g>
<g>
</g>
<g>
</g>
<g>
</g>
<g>
</g>
<g>
</g>
</svg>
